<?xml version="1.0" encoding="UTF-8"?>
<svg width="87.247mm" height="23.462mm" version="1.1" viewBox="0 0 87.247 23.462" xmlns="http://www.w3.org/2000/svg" xmlns:rdf="http://www.w3.org/1999/02/22-rdf-syntax-ns#">
	<namedview bordercolor="#666666" borderopacity="1.0" fit-margin-bottom="0" fit-margin-left="0" fit-margin-right="0" fit-margin-top="0" pagecolor="#ffffff" showgrid="false">
		<grid type="xygrid" />
	</namedview>
	<metadata>
		<RDF>
			<Work rdf:about="">
				<format>
					image/svg+xml
				</format>
				<type rdf:resource="http://purl.org/dc/dcmitype/StillImage" />
			</Work>
		</RDF>
	</metadata>
	<g transform="translate(-.24895 -.27483)">
		<g transform="translate(-29.104 -9.0714)">
			<g transform="translate(0 1.4454)">
				<g transform="matrix(.051611 0 0 .051611 13.091 4.8868)" style="">
					<polygon class="st1" points="344.6 143.7 344.6 188.1 315.1 201.7 315.1 157.3" fill="#eeceb6" />
					<polygon class="st2" points="344.6 188.1 344.6 232.6 315.1 246.2 315.1 201.7" fill="#fdebd9" />
					<polygon class="st3" points="374.1 130.1 374.1 174.6 344.6 188.1 344.6 143.7" fill="#f5e4d6" />
					<polygon class="st4" points="374.1 174.6 374.1 219 344.6 232.6 344.6 188.1" fill="#fbdabb" />
					<polygon class="st1" points="403.5 116.5 403.5 161 374.1 174.6 374.1 130.1" fill="#eeceb6" />
					<polygon class="st2" points="403.5 161 403.5 205.4 374.1 219 374.1 174.6" fill="#fdebd9" />
					<polygon class="st3" points="433 102.9 433 147.4 403.5 161 403.5 116.5" fill="#f5e4d6" />
					<polygon class="st4" points="433 147.4 433 191.8 403.5 205.4 403.5 161" fill="#fbdabb" />
					<polygon class="st1" points="344.6 232.6 344.6 277.1 315.1 290.7 315.1 246.2" fill="#eeceb6" />
					<polygon class="st2" points="344.6 277.1 344.6 321.5 315.1 335.1 315.1 290.7" fill="#fdebd9" />
					<polygon class="st3" points="374.1 219 374.1 263.5 344.6 277.1 344.6 232.6" fill="#f5e4d6" />
					<polygon class="st4" points="374.1 263.5 374.1 307.9 344.6 321.5 344.6 277.1" fill="#fbdabb" />
					<polygon class="st1" points="403.5 205.4 403.5 249.9 374.1 263.5 374.1 219" fill="#eeceb6" />
					<polygon class="st2" points="403.5 249.9 403.5 294.3 374.1 307.9 374.1 263.5" fill="#fdebd9" />
					<polygon class="st5" points="433 191.8 433 236.3 403.5 249.9 403.5 205.4" fill="#63ccee" />
					<polygon class="st4" points="433 236.3 433 280.7 403.5 294.3 403.5 249.9" fill="#fbdabb" />
					<polygon class="st1" points="344.6 321.5 344.6 366 315.1 379.6 315.1 335.1" fill="#eeceb6" />
					<polygon class="st2" points="344.6 366 344.6 410.5 315.1 424 315.1 379.6" fill="#fdebd9" />
					<polygon class="st3" points="374.1 307.9 374.1 352.4 344.6 366 344.6 321.5" fill="#f5e4d6" />
					<polygon class="st4" points="374.1 352.4 374.1 396.9 344.6 410.5 344.6 366" fill="#fbdabb" />
					<polygon class="st1" points="403.5 294.3 403.5 338.8 374.1 352.4 374.1 307.9" fill="#eeceb6" />
					<polygon class="st2" points="403.5 338.8 403.5 383.3 374.1 396.9 374.1 352.4" fill="#fdebd9" />
					<polygon class="st3" points="433 280.7 433 325.2 403.5 338.8 403.5 294.3" fill="#f5e4d6" />
					<polygon class="st4" points="433 325.2 433 369.7 403.5 383.3 403.5 338.8" fill="#fbdabb" />
					<polygon class="st1" points="344.6 410.5 344.6 454.9 315.1 468.5 315.1 424" fill="#eeceb6" />
					<polygon class="st2" points="344.6 454.9 344.6 499.4 315.1 513 315.1 468.5" fill="#fdebd9" />
					<polygon class="st3" points="374.1 396.9 374.1 441.3 344.6 454.9 344.6 410.5" fill="#f5e4d6" />
					<polygon class="st4" points="374.1 441.3 374.1 485.8 344.6 499.4 344.6 454.9" fill="#fbdabb" />
					<polygon class="st1" points="403.5 383.3 403.5 427.7 374.1 441.3 374.1 396.9" fill="#eeceb6" />
					<polygon class="st2" points="403.5 427.7 403.5 472.2 374.1 485.8 374.1 441.3" fill="#fdebd9" />
					<polygon class="st3" points="433 369.7 433 414.1 403.5 427.7 403.5 383.3" fill="#f5e4d6" />
					<polygon class="st4" points="433 414.1 433 458.6 403.5 472.2 403.5 427.7" fill="#fbdabb" />
					<polygon class="st6" points="462.5 116.5 462.5 161 433 147.4 433 102.9" fill="#e8ba98" />
					<polygon class="st7" points="462.5 161 462.5 205.4 433 191.8 433 147.4" fill="#f4aa69" />
					<polygon class="st8" points="492 130.1 492 174.6 462.5 161 462.5 116.5" fill="#db9364" />
					<polygon class="st9" points="492 174.6 492 219 462.5 205.4 462.5 161" fill="#f6b982" />
					<polygon class="st6" points="521.5 143.7 521.5 188.1 492 174.6 492 130.1" fill="#e8ba98" />
					<polygon class="st7" points="521.5 188.1 521.5 232.6 492 219 492 174.6" fill="#f4aa69" />
					<polygon class="st8" points="551 157.3 551 201.7 521.5 188.1 521.5 143.7" fill="#db9364" />
					<polygon class="st9" points="551 201.7 551 246.2 521.5 232.6 521.5 188.1" fill="#f6b982" />
					<polygon class="st10" points="462.5 205.4 462.5 249.9 433 236.3 433 191.8" fill="#00a4da" />
					<polygon class="st7" points="462.5 249.9 462.5 294.3 433 280.7 433 236.3" fill="#f4aa69" />
					<polygon class="st11" points="492 219 492 263.5 462.5 249.9 462.5 205.4" fill="#008ed0" />
					<polygon class="st12" points="492 263.5 492 307.9 462.5 294.3 462.5 249.9" fill="#00b1bb" />
					<polygon class="st10" points="521.5 232.6 521.5 277.1 492 263.5 492 219" fill="#00a4da" />
					<polygon class="st7" points="521.5 277.1 521.5 321.5 492 307.9 492 263.5" fill="#f4aa69" />
					<polygon class="st11" points="551 246.2 551 290.7 521.5 277.1 521.5 232.6" fill="#008ed0" />
					<polygon class="st9" points="551 290.7 551 335.1 521.5 321.5 521.5 277.1" fill="#f6b982" />
					<polygon class="st6" points="462.5 294.3 462.5 338.8 433 325.2 433 280.7" fill="#e8ba98" />
					<polygon class="st7" points="462.5 338.8 462.5 383.3 433 369.7 433 325.2" fill="#f4aa69" />
					<polygon class="st11" points="492 307.9 492 352.4 462.5 338.8 462.5 294.3" fill="#008ed0" />
					<polygon class="st12" points="492 352.4 492 396.9 462.5 383.3 462.5 338.8" fill="#00b1bb" />
					<polygon class="st6" points="521.5 321.5 521.5 366 492 352.4 492 307.9" fill="#e8ba98" />
					<polygon class="st7" points="521.5 366 521.5 410.5 492 396.9 492 352.4" fill="#f4aa69" />
					<polygon class="st8" points="551 335.1 551 379.6 521.5 366 521.5 321.5" fill="#db9364" />
					<polygon class="st9" points="551 379.6 551 424 521.5 410.5 521.5 366" fill="#f6b982" />
					<polygon class="st6" points="462.5 383.3 462.5 427.7 433 414.1 433 369.7" fill="#e8ba98" />
					<polygon class="st7" points="462.5 427.7 462.5 472.2 433 458.6 433 414.1" fill="#f4aa69" />
					<polygon class="st8" points="492 396.9 492 441.3 462.5 427.7 462.5 383.3" fill="#db9364" />
					<polygon class="st9" points="492 441.3 492 485.8 462.5 472.2 462.5 427.7" fill="#f6b982" />
					<polygon class="st6" points="521.5 410.5 521.5 454.9 492 441.3 492 396.9" fill="#e8ba98" />
					<polygon class="st7" points="521.5 454.9 521.5 499.4 492 485.8 492 441.3" fill="#f4aa69" />
					<polygon class="st8" points="551 424 551 468.5 521.5 454.9 521.5 410.5" fill="#db9364" />
					<polygon class="st9" points="551 468.5 551 513 521.5 499.4 521.5 454.9" fill="#f6b982" />
					<polygon class="st1" points="580.4 143.7 580.4 188.1 551 201.7 551 157.3" fill="#eeceb6" />
					<polygon class="st2" points="580.4 188.1 580.4 232.6 551 246.2 551 201.7" fill="#fdebd9" />
					<polygon class="st3" points="609.9 130.1 609.9 174.6 580.4 188.1 580.4 143.7" fill="#f5e4d6" />
					<polygon class="st4" points="609.9 174.6 609.9 219 580.4 232.6 580.4 188.1" fill="#fbdabb" />
					<polygon class="st1" points="639.4 116.5 639.4 161 609.9 174.6 609.9 130.1" fill="#eeceb6" />
					<polygon class="st2" points="639.4 161 639.4 205.4 609.9 219 609.9 174.6" fill="#fdebd9" />
					<polygon class="st3" points="668.9 102.9 668.9 147.4 639.4 161 639.4 116.5" fill="#f5e4d6" />
					<polygon class="st4" points="668.9 147.4 668.9 191.8 639.4 205.4 639.4 161" fill="#fbdabb" />
					<polygon class="st1" points="580.4 232.6 580.4 277.1 551 290.7 551 246.2" fill="#eeceb6" />
					<polygon class="st2" points="580.4 277.1 580.4 321.5 551 335.1 551 290.7" fill="#fdebd9" />
					<polygon class="st5" points="609.9 219 609.9 263.5 580.4 277.1 580.4 232.6" fill="#63ccee" />
					<polygon class="st13" points="609.9 263.5 609.9 307.9 580.4 321.5 580.4 277.1" fill="#4fc4ca" />
					<polygon class="st14" points="639.4 205.4 639.4 249.9 609.9 263.5 609.9 219" fill="#2ab8ea" />
					<polygon class="st2" points="639.4 249.9 639.4 294.3 609.9 307.9 609.9 263.5" fill="#fdebd9" />
					<polygon class="st5" points="668.9 191.8 668.9 236.3 639.4 249.9 639.4 205.4" fill="#63ccee" />
					<polygon class="st4" points="668.9 236.3 668.9 280.7 639.4 294.3 639.4 249.9" fill="#fbdabb" />
					<polygon class="st1" points="580.4 321.5 580.4 366 551 379.6 551 335.1" fill="#eeceb6" />
					<polygon class="st2" points="580.4 366 580.4 410.5 551 424 551 379.6" fill="#fdebd9" />
					<polygon class="st14" points="609.9 307.9 609.9 352.4 580.4 366 580.4 321.5" fill="#2ab8ea" />
					<polygon class="st13" points="609.9 352.4 609.9 396.9 580.4 410.5 580.4 366" fill="#4fc4ca" />
					<polygon class="st1" points="639.4 294.3 639.4 338.8 609.9 352.4 609.9 307.9" fill="#eeceb6" />
					<polygon class="st15" points="639.4 338.8 639.4 383.3 609.9 396.9 609.9 352.4" fill="#47b7b6" />
					<polygon class="st3" points="668.9 280.7 668.9 325.2 639.4 338.8 639.4 294.3" fill="#f5e4d6" />
					<polygon class="st13" points="668.9 325.2 668.9 369.7 639.4 383.3 639.4 338.8" fill="#4fc4ca" />
					<polygon class="st1" points="580.4 410.5 580.4 454.9 551 468.5 551 424" fill="#eeceb6" />
					<polygon class="st2" points="580.4 454.9 580.4 499.4 551 513 551 468.5" fill="#fdebd9" />
					<polygon class="st3" points="609.9 396.9 609.9 441.3 580.4 454.9 580.4 410.5" fill="#f5e4d6" />
					<polygon class="st4" points="609.9 441.3 609.9 485.8 580.4 499.4 580.4 454.9" fill="#fbdabb" />
					<polygon class="st1" points="639.4 383.3 639.4 427.7 609.9 441.3 609.9 396.9" fill="#eeceb6" />
					<polygon class="st2" points="639.4 427.7 639.4 472.2 609.9 485.8 609.9 441.3" fill="#fdebd9" />
					<polygon class="st3" points="668.9 369.7 668.9 414.1 639.4 427.7 639.4 383.3" fill="#f5e4d6" />
					<polygon class="st4" points="668.9 414.1 668.9 458.6 639.4 472.2 639.4 427.7" fill="#fbdabb" />
					<polygon class="st6" points="708.8 87.5 708.8 131.9 679.3 118.3 679.3 73.9" fill="#e8ba98" />
					<polygon class="st7" points="698.4 161 698.4 205.4 668.9 191.8 668.9 147.4" fill="#f4aa69" />
					<polygon class="st12" points="742.6 157.3 742.6 201.7 713.1 188.1 713.1 143.7" fill="#00b1bb" />
					<polygon class="st6" points="775.9 72 775.9 116.5 746.4 102.9 746.4 58.4" fill="#e8ba98" />
					<polygon class="st7" points="797.4 217.2 797.4 261.6 767.9 248 767.9 203.6" fill="#f4aa69" />
					<polygon class="st8" points="835 116.5 835 161 805.5 147.4 805.5 102.9" fill="#db9364" />
					<polygon class="st11" points="698.4 205.4 698.4 249.9 668.9 236.3 668.9 191.8" fill="#008ed0" />
					<polygon class="st7" points="698.4 249.9 698.4 294.3 668.9 280.7 668.9 236.3" fill="#f4aa69" />
					<polygon class="st8" points="727.9 219 727.9 263.5 698.4 249.9 698.4 205.4" fill="#db9364" />
					<polygon class="st9" points="727.9 263.5 727.9 307.9 698.4 294.3 698.4 249.9" fill="#f6b982" />
					<polygon class="st7" points="757.4 277.1 757.4 321.5 727.9 307.9 727.9 263.5" fill="#f4aa69" />
					<polygon class="st8" points="839.8 285.3 839.8 329.8 810.3 316.2 810.3 271.7" fill="#db9364" />
					<polygon class="st6" points="698.4 294.3 698.4 338.8 668.9 325.2 668.9 280.7" fill="#e8ba98" />
					<polygon class="st12" points="698.4 338.8 698.4 383.3 668.9 369.7 668.9 325.2" fill="#00b1bb" />
					<polygon class="st8" points="727.9 307.9 727.9 352.4 698.4 338.8 698.4 294.3" fill="#db9364" />
					<polygon class="st9" points="727.9 352.4 727.9 396.9 698.4 383.3 698.4 338.8" fill="#f6b982" />
					<polygon class="st6" points="757.4 321.5 757.4 366 727.9 352.4 727.9 307.9" fill="#e8ba98" />
					<polygon class="st7" points="757.4 366 757.4 410.5 727.9 396.9 727.9 352.4" fill="#f4aa69" />
					<polygon class="st8" points="786.8 335.1 786.8 379.6 757.4 366 757.4 321.5" fill="#db9364" />
					<polygon class="st9" points="786.8 379.6 786.8 424 757.4 410.5 757.4 366" fill="#f6b982" />
					<polygon class="st6" points="698.4 383.3 698.4 427.7 668.9 414.1 668.9 369.7" fill="#e8ba98" />
					<polygon class="st7" points="698.4 427.7 698.4 472.2 668.9 458.6 668.9 414.1" fill="#f4aa69" />
					<polygon class="st8" points="727.9 396.9 727.9 441.3 698.4 427.7 698.4 383.3" fill="#db9364" />
					<polygon class="st9" points="727.9 441.3 727.9 485.8 698.4 472.2 698.4 427.7" fill="#f6b982" />
					<polygon class="st6" points="757.4 410.5 757.4 454.9 727.9 441.3 727.9 396.9" fill="#e8ba98" />
					<polygon class="st7" points="757.4 454.9 757.4 499.4 727.9 485.8 727.9 441.3" fill="#f4aa69" />
					<polygon class="st8" points="786.8 424 786.8 468.5 757.4 454.9 757.4 410.5" fill="#db9364" />
					<polygon class="st9" points="786.8 468.5 786.8 513 757.4 499.4 757.4 454.9" fill="#f6b982" />
				</g>
				<g transform="matrix(.056201 0 0 .056201 26.309 .081677)" fill="#666" stroke-width="1.031">
					<path class="st0" d="m575.49 270.71h79.488v12.784h-32.785v88.973h-14.021v-88.973h-32.682z" />
					<path class="st0" d="m678.28 270.71h70.622v12.681h-56.703v31.445h50.724v12.681h-50.724v32.476h58.559v12.681h-72.374v-101.96z" />
					<path class="st0" d="m846.22 372.57-20.207-31.96c-2.3712 0.20619-4.227 0.30929-5.6704 0.30929h-25.877v31.651h-13.918v-101.76h39.796c12.887 0 22.888 2.9898 29.898 8.9694 7.0106 5.9796 10.516 14.434 10.516 25.362 0 8.2478-1.9588 15.155-5.7734 20.826-3.8146 5.6704-9.2788 9.6911-16.496 12.165l23.712 34.434zm-25.877-44.332c8.7633 0 15.361-1.9588 20.104-5.7734 4.6394-3.8146 7.0106-9.4849 7.0106-16.908 0-7.3199-2.3712-12.784-7.0106-16.496-4.6394-3.7115-11.341-5.5672-20.104-5.5672h-25.877v44.744z" />
					<path class="st0" d="m958.6 372.57-20.207-31.96c-2.3712 0.20619-4.227 0.30929-5.6703 0.30929h-25.877v31.651h-13.918v-101.76h39.796c12.887 0 22.888 2.9898 29.898 8.9694 7.0106 5.9796 10.516 14.434 10.516 25.362 0 8.2478-1.9588 15.155-5.7734 20.826-3.8146 5.6704-9.2787 9.6911-16.496 12.165l23.712 34.434zm-25.877-44.332c8.7633 0 15.361-1.9588 20.104-5.7734 4.6394-3.8146 7.0106-9.4849 7.0106-16.908 0-7.3199-2.3712-12.784-7.0106-16.496s-11.341-5.5672-20.104-5.5672h-25.877v44.744z" />
					<path class="st0" d="m1081 372.57-10.722-24.743h-53.61l-10.619 24.743h-14.64l45.26-101.76h14.537l45.053 101.76zm-58.972-37.424h42.785l-21.547-49.487z" />
					<path class="st0" d="m1175.9 285.66c-5.1549-2.2681-10.413-3.4022-15.877-3.4022-7.2168 0-13.815 1.7526-19.795 5.258-5.9796 3.5053-10.722 8.2478-14.227 14.227-3.5053 5.9796-5.2579 12.578-5.2579 19.692 0 7.1137 1.7526 13.609 5.2579 19.588 3.5053 5.9796 8.2478 10.722 14.227 14.227 5.9797 3.5053 12.578 5.258 19.795 5.258 5.361 0 10.516-1.1341 15.671-3.2991 5.1548-2.165 9.6911-5.1549 13.712-8.9694l8.454 9.1756c-5.1549 5.0518-11.134 8.9694-17.836 11.856-6.8044 2.8867-13.712 4.3301-20.619 4.3301-9.6911 0-18.558-2.2681-26.599-6.9075-8.0415-4.6394-14.434-10.928-19.073-18.867-4.6394-7.9385-7.0107-16.702-7.0107-26.29 0-9.485 2.3713-18.248 7.0107-26.084 4.7424-7.9385 11.134-14.124 19.279-18.661 8.1447-4.5363 17.114-6.8044 26.908-6.8044 7.1137 0 13.918 1.3403 20.619 4.0208 6.5983 2.6805 12.372 6.392 17.217 11.238l-8.2478 10c-4.0208-4.1239-8.454-7.3199-13.609-9.588z" />
					<path class="st0" d="m1293.8 276.69c8.1447 4.5363 14.64 10.825 19.382 18.661 4.7425 7.9385 7.1137 16.599 7.1137 26.084s-2.3712 18.248-7.1137 26.29-11.238 14.331-19.382 18.867c-8.1446 4.6394-17.217 6.9075-27.011 6.9075s-18.764-2.2681-27.012-6.9075c-8.1447-4.6394-14.64-10.928-19.382-18.867-4.7424-8.0416-7.1137-16.702-7.1137-26.29 0-9.4849 2.3713-18.248 7.1137-26.084 4.7425-7.9385 11.238-14.124 19.382-18.661 8.1447-4.5363 17.114-6.8044 27.012-6.8044 9.7942 0 18.764 2.2681 27.011 6.8044zm-46.6 10.928c-6.0827 3.5053-10.928 8.2478-14.434 14.227-3.6084 5.9796-5.361 12.578-5.361 19.692 0 7.2168 1.7526 13.815 5.361 19.795 3.6084 5.9796 8.454 10.825 14.434 14.33 6.0828 3.5053 12.578 5.258 19.692 5.258s13.609-1.7526 19.588-5.258c5.9797-3.5053 10.722-8.3509 14.228-14.33 3.5053-5.9796 5.361-12.578 5.361-19.795 0-7.2168-1.7526-13.712-5.361-19.692-3.5053-5.9796-8.2478-10.722-14.228-14.227-5.9796-3.5053-12.475-5.258-19.588-5.258s-13.609 1.7527-19.692 5.258z" />
					<path class="st0" d="m1332.9 270.71h79.488v12.784h-32.785v88.973h-13.918v-88.973h-32.682v-12.784z" />
					<path class="st0" d="m1422.6 270.71h79.488v12.784h-32.785v88.973h-13.918v-88.973h-32.682v-12.784z" />
					<path class="st0" d="m1591.3 372.57-10.722-24.743h-53.61l-10.619 24.743h-14.64l45.26-101.76h14.537l45.053 101.76zm-58.868-37.424h42.785l-21.547-49.487z" />
				</g>
				<g fill="#0b4566" stroke-width=".2594" aria-label="Preview App">
					<path d="m61.025 25.289v1.6095h-0.54295v-4.0128h1.5351q0.64217 0 0.9977 0.33073 0.35553 0.33073 0.35553 0.87092 0 0.54846-0.35553 0.87643-0.35553 0.32522-0.9977 0.32522zm0-0.42444h0.99219q0.4079 0 0.60909-0.21773 0.20119-0.22049 0.20119-0.55397 0-0.33349-0.20395-0.55673-0.20119-0.22324-0.60634-0.22324h-0.99219z" />
					<path d="m65.407 24.396-0.27836-0.01654q-0.21497 0-0.3638 0.10197-0.14607 0.10198-0.226 0.28663v2.1304h-0.54295v-2.9821h0.48507l0.05236 0.43546q0.12678-0.23151 0.31144-0.36105 0.18741-0.12954 0.42995-0.12954 0.06063 0 0.11576 0.01103 0.05512 0.0083 0.09095 0.01929z" />
					<path d="m67.119 26.956q-0.62287 0-0.99219-0.41341-0.36656-0.41617-0.36656-1.0776v-0.12127q0-0.63665 0.37758-1.0583 0.38034-0.42444 0.89848-0.42444 0.60358 0 0.91226 0.3638 0.30868 0.3638 0.30868 0.97014v0.339h-1.9348l-0.0083 0.01378q0.0083 0.42995 0.21773 0.70831 0.20946 0.27561 0.58704 0.27561 0.27561 0 0.48231-0.07717 0.20946-0.07993 0.36105-0.21773l0.21222 0.35278q-0.15985 0.1571-0.42168 0.26183t-0.6339 0.10473zm-0.08268-2.6679q-0.27285 0-0.46578 0.23151-0.19292 0.22875-0.23702 0.57602l0.0055 0.01378h1.3753v-0.07166q0-0.3197-0.17088-0.53468t-0.50712-0.21497z" />
					<path d="m69.831 26.019 0.04685 0.20946h0.01654l0.05237-0.20946 0.68626-2.1029h0.55397l-1.0969 2.9821h-0.41066l-1.1107-2.9821h0.55673z" />
					<path d="m72.267 26.898h-0.54295v-2.9821h0.54295zm0-3.7455h-0.54295v-0.55397h0.54295z" />
					<path d="m74.34 26.956q-0.62287 0-0.99219-0.41341-0.36656-0.41617-0.36656-1.0776v-0.12127q0-0.63665 0.37758-1.0583 0.38034-0.42444 0.89848-0.42444 0.60358 0 0.91226 0.3638 0.30868 0.3638 0.30868 0.97014v0.339h-1.9348l-0.0083 0.01378q0.0083 0.42995 0.21773 0.70831 0.20946 0.27561 0.58704 0.27561 0.27561 0 0.48231-0.07717 0.20946-0.07993 0.36105-0.21773l0.21222 0.35278q-0.15985 0.1571-0.42168 0.26183t-0.6339 0.10473zm-0.08268-2.6679q-0.27285 0-0.46578 0.23151-0.19292 0.22875-0.23702 0.57602l0.0055 0.01378h1.3753v-0.07166q0-0.3197-0.17088-0.53468t-0.50712-0.21497z" />
					<path d="m76.853 25.812 0.06339 0.36105h0.01654l0.07717-0.36105 0.59531-1.8962h0.43546l0.59807 1.8962 0.08544 0.40239h0.01654l0.07993-0.40239 0.46853-1.8962h0.54019l-0.86541 2.9821h-0.43822l-0.57602-1.8163-0.12402-0.50712-0.01654 0.0028-0.11851 0.50436-0.56775 1.8163h-0.43822l-0.86541-2.9821h0.54019z" />
					<path d="m84.044 25.865h-1.6812l-0.38034 1.0335h-0.55397l1.5517-4.0128h0.46578l1.5269 4.0128h-0.55397zm-1.5131-0.45475h1.3505l-0.66146-1.8273h-0.01654z" />
					<path d="m87.968 25.52q0 0.64492-0.30868 1.0418-0.30868 0.39412-0.85163 0.39412-0.27561 0-0.48507-0.09095-0.2067-0.09371-0.35278-0.27836v1.458h-0.54295v-4.1286h0.41617l0.08544 0.38585q0.14607-0.21497 0.3638-0.32797 0.21773-0.113 0.50712-0.113 0.55397 0 0.8599 0.44097 0.30868 0.43822 0.30868 1.1603zm-0.54295-0.05788q0-0.50712-0.20119-0.83234-0.19844-0.32797-0.58704-0.32797-0.23427 0-0.39963 0.10749-0.16536 0.10473-0.26734 0.28939v1.4414q0.10197 0.18466 0.26734 0.28939 0.16536 0.10198 0.40514 0.10198 0.38585 0 0.58429-0.28112 0.19844-0.28388 0.19844-0.73036z" />
					<path d="m91.176 25.52q0 0.64492-0.30868 1.0418-0.30868 0.39412-0.85163 0.39412-0.27561 0-0.48507-0.09095-0.20671-0.09371-0.35278-0.27836v1.458h-0.54295v-4.1286h0.41617l0.08544 0.38585q0.14607-0.21497 0.3638-0.32797 0.21773-0.113 0.50712-0.113 0.55397 0 0.8599 0.44097 0.30868 0.43822 0.30868 1.1603zm-0.54295-0.05788q0-0.50712-0.20119-0.83234-0.19844-0.32797-0.58704-0.32797-0.23427 0-0.39963 0.10749-0.16536 0.10473-0.26734 0.28939v1.4414q0.10198 0.18466 0.26734 0.28939 0.16536 0.10198 0.40514 0.10198 0.38585 0 0.58429-0.28112 0.19844-0.28388 0.19844-0.73036z" />
				</g>
			</g>
		</g>
	</g>
	<style type="text/css">
		.st0{fill:#808285;}
		.st1{fill:#EECEB6;}
		.st2{fill:#FDEBD9;}
		.st3{fill:#F5E4D6;}
		.st4{fill:#FBDABB;}
		.st5{fill:#63CCEE;}
		.st6{fill:#E8BA98;}
		.st7{fill:#F4AA69;}
		.st8{fill:#DB9364;}
		.st9{fill:#F6B982;}
		.st10{fill:#00A4DA;}
		.st11{fill:#008ED0;}
		.st12{fill:#00B1BB;}
		.st13{fill:#4FC4CA;}
		.st14{fill:#2AB8EA;}
		.st15{fill:#47B7B6;}
	</style>
</svg>
