<?xml version="1.0" encoding="UTF-8" standalone="no"?>
<!-- Created with Inkscape (http://www.inkscape.org/) -->

<svg
   xmlns:dc="http://purl.org/dc/elements/1.1/"
   xmlns:cc="http://creativecommons.org/ns#"
   xmlns:rdf="http://www.w3.org/1999/02/22-rdf-syntax-ns#"
   xmlns:svg="http://www.w3.org/2000/svg"
   xmlns="http://www.w3.org/2000/svg"
   xmlns:sodipodi="http://sodipodi.sourceforge.net/DTD/sodipodi-0.dtd"
   xmlns:inkscape="http://www.inkscape.org/namespaces/inkscape"
   width="87.246864mm"
   height="23.462238mm"
   viewBox="0 0 87.246864 23.462238"
   version="1.1"
   id="svg8"
   inkscape:version="0.92.2 (5c3e80d, 2017-08-06)"
   sodipodi:docname="header.svg">
  <defs
     id="defs2" />
  <sodipodi:namedview
     id="base"
     pagecolor="#ffffff"
     bordercolor="#666666"
     borderopacity="1.0"
     inkscape:pageopacity="0.0"
     inkscape:pageshadow="2"
     inkscape:zoom="3.959798"
     inkscape:cx="194.90435"
     inkscape:cy="22.491221"
     inkscape:document-units="mm"
     inkscape:current-layer="g976"
     showgrid="false"
     inkscape:window-width="2560"
     inkscape:window-height="1377"
     inkscape:window-x="-8"
     inkscape:window-y="-8"
     inkscape:window-maximized="1"
     fit-margin-top="0"
     fit-margin-left="0"
     fit-margin-right="0"
     fit-margin-bottom="0">
    <inkscape:grid
       type="xygrid"
       id="grid1123" />
  </sodipodi:namedview>
  <metadata
     id="metadata5">
    <rdf:RDF>
      <cc:Work
         rdf:about="">
        <dc:format>image/svg+xml</dc:format>
        <dc:type
           rdf:resource="http://purl.org/dc/dcmitype/StillImage" />
        <dc:title></dc:title>
      </cc:Work>
    </rdf:RDF>
  </metadata>
  <g
     inkscape:label="Layer 1"
     inkscape:groupmode="layer"
     id="layer1"
     transform="translate(-0.24895302,-0.27483013)">
    <g
       id="g1121"
       transform="translate(-29.104167,-9.0714286)">
      <g
         transform="translate(0,1.4454393)"
         id="g976">
        <g
           id="g1451">
          <g
             id="g282"
             transform="matrix(0.05161073,0,0,0.05161073,13.090579,4.8867528)"
             style="">
            <g
               id="g90">
              <polygon
                 style="fill:#eeceb6"
                 id="polygon26"
                 points="344.6,143.7 344.6,188.1 315.1,201.7 315.1,157.3 "
                 class="st1" />
              <polygon
                 style="fill:#fdebd9"
                 id="polygon28"
                 points="344.6,188.1 344.6,232.6 315.1,246.2 315.1,201.7 "
                 class="st2" />
              <polygon
                 style="fill:#f5e4d6"
                 id="polygon30"
                 points="374.1,130.1 374.1,174.6 344.6,188.1 344.6,143.7 "
                 class="st3" />
              <polygon
                 style="fill:#fbdabb"
                 id="polygon32"
                 points="374.1,174.6 374.1,219 344.6,232.6 344.6,188.1 "
                 class="st4" />
              <polygon
                 style="fill:#eeceb6"
                 id="polygon34"
                 points="403.5,116.5 403.5,161 374.1,174.6 374.1,130.1 "
                 class="st1" />
              <polygon
                 style="fill:#fdebd9"
                 id="polygon36"
                 points="403.5,161 403.5,205.4 374.1,219 374.1,174.6 "
                 class="st2" />
              <polygon
                 style="fill:#f5e4d6"
                 id="polygon38"
                 points="433,102.9 433,147.4 403.5,161 403.5,116.5 "
                 class="st3" />
              <polygon
                 style="fill:#fbdabb"
                 id="polygon40"
                 points="433,147.4 433,191.8 403.5,205.4 403.5,161 "
                 class="st4" />
              <polygon
                 style="fill:#eeceb6"
                 id="polygon42"
                 points="344.6,232.6 344.6,277.1 315.1,290.7 315.1,246.2 "
                 class="st1" />
              <polygon
                 style="fill:#fdebd9"
                 id="polygon44"
                 points="344.6,277.1 344.6,321.5 315.1,335.1 315.1,290.7 "
                 class="st2" />
              <polygon
                 style="fill:#f5e4d6"
                 id="polygon46"
                 points="374.1,219 374.1,263.5 344.6,277.1 344.6,232.6 "
                 class="st3" />
              <polygon
                 style="fill:#fbdabb"
                 id="polygon48"
                 points="374.1,263.5 374.1,307.9 344.6,321.5 344.6,277.1 "
                 class="st4" />
              <polygon
                 style="fill:#eeceb6"
                 id="polygon50"
                 points="403.5,205.4 403.5,249.9 374.1,263.5 374.1,219 "
                 class="st1" />
              <polygon
                 style="fill:#fdebd9"
                 id="polygon52"
                 points="403.5,249.9 403.5,294.3 374.1,307.9 374.1,263.5 "
                 class="st2" />
              <polygon
                 style="fill:#63ccee"
                 id="polygon54"
                 points="433,191.8 433,236.3 403.5,249.9 403.5,205.4 "
                 class="st5" />
              <polygon
                 style="fill:#fbdabb"
                 id="polygon56"
                 points="433,236.3 433,280.7 403.5,294.3 403.5,249.9 "
                 class="st4" />
              <polygon
                 style="fill:#eeceb6"
                 id="polygon58"
                 points="344.6,321.5 344.6,366 315.1,379.6 315.1,335.1 "
                 class="st1" />
              <polygon
                 style="fill:#fdebd9"
                 id="polygon60"
                 points="344.6,366 344.6,410.5 315.1,424 315.1,379.6 "
                 class="st2" />
              <polygon
                 style="fill:#f5e4d6"
                 id="polygon62"
                 points="374.1,307.9 374.1,352.4 344.6,366 344.6,321.5 "
                 class="st3" />
              <polygon
                 style="fill:#fbdabb"
                 id="polygon64"
                 points="374.1,352.4 374.1,396.9 344.6,410.5 344.6,366 "
                 class="st4" />
              <polygon
                 style="fill:#eeceb6"
                 id="polygon66"
                 points="403.5,294.3 403.5,338.8 374.1,352.4 374.1,307.9 "
                 class="st1" />
              <polygon
                 style="fill:#fdebd9"
                 id="polygon68"
                 points="403.5,338.8 403.5,383.3 374.1,396.9 374.1,352.4 "
                 class="st2" />
              <polygon
                 style="fill:#f5e4d6"
                 id="polygon70"
                 points="433,280.7 433,325.2 403.5,338.8 403.5,294.3 "
                 class="st3" />
              <polygon
                 style="fill:#fbdabb"
                 id="polygon72"
                 points="433,325.2 433,369.7 403.5,383.3 403.5,338.8 "
                 class="st4" />
              <polygon
                 style="fill:#eeceb6"
                 id="polygon74"
                 points="344.6,410.5 344.6,454.9 315.1,468.5 315.1,424 "
                 class="st1" />
              <polygon
                 style="fill:#fdebd9"
                 id="polygon76"
                 points="344.6,454.9 344.6,499.4 315.1,513 315.1,468.5 "
                 class="st2" />
              <polygon
                 style="fill:#f5e4d6"
                 id="polygon78"
                 points="374.1,396.9 374.1,441.3 344.6,454.9 344.6,410.5 "
                 class="st3" />
              <polygon
                 style="fill:#fbdabb"
                 id="polygon80"
                 points="374.1,441.3 374.1,485.8 344.6,499.4 344.6,454.9 "
                 class="st4" />
              <polygon
                 style="fill:#eeceb6"
                 id="polygon82"
                 points="403.5,383.3 403.5,427.7 374.1,441.3 374.1,396.9 "
                 class="st1" />
              <polygon
                 style="fill:#fdebd9"
                 id="polygon84"
                 points="403.5,427.7 403.5,472.2 374.1,485.8 374.1,441.3 "
                 class="st2" />
              <polygon
                 style="fill:#f5e4d6"
                 id="polygon86"
                 points="433,369.7 433,414.1 403.5,427.7 403.5,383.3 "
                 class="st3" />
              <polygon
                 style="fill:#fbdabb"
                 id="polygon88"
                 points="433,414.1 433,458.6 403.5,472.2 403.5,427.7 "
                 class="st4" />
            </g>
            <g
               id="g156">
              <polygon
                 style="fill:#e8ba98"
                 id="polygon92"
                 points="462.5,116.5 462.5,161 433,147.4 433,102.9 "
                 class="st6" />
              <polygon
                 style="fill:#f4aa69"
                 id="polygon94"
                 points="462.5,161 462.5,205.4 433,191.8 433,147.4 "
                 class="st7" />
              <polygon
                 style="fill:#db9364"
                 id="polygon96"
                 points="492,130.1 492,174.6 462.5,161 462.5,116.5 "
                 class="st8" />
              <polygon
                 style="fill:#f6b982"
                 id="polygon98"
                 points="492,174.6 492,219 462.5,205.4 462.5,161 "
                 class="st9" />
              <polygon
                 style="fill:#e8ba98"
                 id="polygon100"
                 points="521.5,143.7 521.5,188.1 492,174.6 492,130.1 "
                 class="st6" />
              <polygon
                 style="fill:#f4aa69"
                 id="polygon102"
                 points="521.5,188.1 521.5,232.6 492,219 492,174.6 "
                 class="st7" />
              <polygon
                 style="fill:#db9364"
                 id="polygon104"
                 points="551,157.3 551,201.7 521.5,188.1 521.5,143.7 "
                 class="st8" />
              <polygon
                 style="fill:#f6b982"
                 id="polygon106"
                 points="551,201.7 551,246.2 521.5,232.6 521.5,188.1 "
                 class="st9" />
              <polygon
                 style="fill:#00a4da"
                 id="polygon108"
                 points="462.5,205.4 462.5,249.9 433,236.3 433,191.8 "
                 class="st10" />
              <polygon
                 style="fill:#f4aa69"
                 id="polygon110"
                 points="462.5,249.9 462.5,294.3 433,280.7 433,236.3 "
                 class="st7" />
              <polygon
                 style="fill:#008ed0"
                 id="polygon112"
                 points="492,219 492,263.5 462.5,249.9 462.5,205.4 "
                 class="st11" />
              <polygon
                 style="fill:#00b1bb"
                 id="polygon114"
                 points="492,263.5 492,307.9 462.5,294.3 462.5,249.9 "
                 class="st12" />
              <polygon
                 style="fill:#00a4da"
                 id="polygon116"
                 points="521.5,232.6 521.5,277.1 492,263.5 492,219 "
                 class="st10" />
              <polygon
                 style="fill:#f4aa69"
                 id="polygon118"
                 points="521.5,277.1 521.5,321.5 492,307.9 492,263.5 "
                 class="st7" />
              <polygon
                 style="fill:#008ed0"
                 id="polygon120"
                 points="551,246.2 551,290.7 521.5,277.1 521.5,232.6 "
                 class="st11" />
              <polygon
                 style="fill:#f6b982"
                 id="polygon122"
                 points="551,290.7 551,335.1 521.5,321.5 521.5,277.1 "
                 class="st9" />
              <polygon
                 style="fill:#e8ba98"
                 id="polygon124"
                 points="462.5,294.3 462.5,338.8 433,325.2 433,280.7 "
                 class="st6" />
              <polygon
                 style="fill:#f4aa69"
                 id="polygon126"
                 points="462.5,338.8 462.5,383.3 433,369.7 433,325.2 "
                 class="st7" />
              <polygon
                 style="fill:#008ed0"
                 id="polygon128"
                 points="492,307.9 492,352.4 462.5,338.8 462.5,294.3 "
                 class="st11" />
              <polygon
                 style="fill:#00b1bb"
                 id="polygon130"
                 points="492,352.4 492,396.9 462.5,383.3 462.5,338.8 "
                 class="st12" />
              <polygon
                 style="fill:#e8ba98"
                 id="polygon132"
                 points="521.5,321.5 521.5,366 492,352.4 492,307.9 "
                 class="st6" />
              <polygon
                 style="fill:#f4aa69"
                 id="polygon134"
                 points="521.5,366 521.5,410.5 492,396.9 492,352.4 "
                 class="st7" />
              <polygon
                 style="fill:#db9364"
                 id="polygon136"
                 points="551,335.1 551,379.6 521.5,366 521.5,321.5 "
                 class="st8" />
              <polygon
                 style="fill:#f6b982"
                 id="polygon138"
                 points="551,379.6 551,424 521.5,410.5 521.5,366 "
                 class="st9" />
              <polygon
                 style="fill:#e8ba98"
                 id="polygon140"
                 points="462.5,383.3 462.5,427.7 433,414.1 433,369.7 "
                 class="st6" />
              <polygon
                 style="fill:#f4aa69"
                 id="polygon142"
                 points="462.5,427.7 462.5,472.2 433,458.6 433,414.1 "
                 class="st7" />
              <polygon
                 style="fill:#db9364"
                 id="polygon144"
                 points="492,396.9 492,441.3 462.5,427.7 462.5,383.3 "
                 class="st8" />
              <polygon
                 style="fill:#f6b982"
                 id="polygon146"
                 points="492,441.3 492,485.8 462.5,472.2 462.5,427.7 "
                 class="st9" />
              <polygon
                 style="fill:#e8ba98"
                 id="polygon148"
                 points="521.5,410.5 521.5,454.9 492,441.3 492,396.9 "
                 class="st6" />
              <polygon
                 style="fill:#f4aa69"
                 id="polygon150"
                 points="521.5,454.9 521.5,499.4 492,485.8 492,441.3 "
                 class="st7" />
              <polygon
                 style="fill:#db9364"
                 id="polygon152"
                 points="551,424 551,468.5 521.5,454.9 521.5,410.5 "
                 class="st8" />
              <polygon
                 style="fill:#f6b982"
                 id="polygon154"
                 points="551,468.5 551,513 521.5,499.4 521.5,454.9 "
                 class="st9" />
            </g>
            <g
               id="g222">
              <polygon
                 style="fill:#eeceb6"
                 id="polygon158"
                 points="580.4,143.7 580.4,188.1 551,201.7 551,157.3 "
                 class="st1" />
              <polygon
                 style="fill:#fdebd9"
                 id="polygon160"
                 points="580.4,188.1 580.4,232.6 551,246.2 551,201.7 "
                 class="st2" />
              <polygon
                 style="fill:#f5e4d6"
                 id="polygon162"
                 points="609.9,130.1 609.9,174.6 580.4,188.1 580.4,143.7 "
                 class="st3" />
              <polygon
                 style="fill:#fbdabb"
                 id="polygon164"
                 points="609.9,174.6 609.9,219 580.4,232.6 580.4,188.1 "
                 class="st4" />
              <polygon
                 style="fill:#eeceb6"
                 id="polygon166"
                 points="639.4,116.5 639.4,161 609.9,174.6 609.9,130.1 "
                 class="st1" />
              <polygon
                 style="fill:#fdebd9"
                 id="polygon168"
                 points="639.4,161 639.4,205.4 609.9,219 609.9,174.6 "
                 class="st2" />
              <polygon
                 style="fill:#f5e4d6"
                 id="polygon170"
                 points="668.9,102.9 668.9,147.4 639.4,161 639.4,116.5 "
                 class="st3" />
              <polygon
                 style="fill:#fbdabb"
                 id="polygon172"
                 points="668.9,147.4 668.9,191.8 639.4,205.4 639.4,161 "
                 class="st4" />
              <polygon
                 style="fill:#eeceb6"
                 id="polygon174"
                 points="580.4,232.6 580.4,277.1 551,290.7 551,246.2 "
                 class="st1" />
              <polygon
                 style="fill:#fdebd9"
                 id="polygon176"
                 points="580.4,277.1 580.4,321.5 551,335.1 551,290.7 "
                 class="st2" />
              <polygon
                 style="fill:#63ccee"
                 id="polygon178"
                 points="609.9,219 609.9,263.5 580.4,277.1 580.4,232.6 "
                 class="st5" />
              <polygon
                 style="fill:#4fc4ca"
                 id="polygon180"
                 points="609.9,263.5 609.9,307.9 580.4,321.5 580.4,277.1 "
                 class="st13" />
              <polygon
                 style="fill:#2ab8ea"
                 id="polygon182"
                 points="639.4,205.4 639.4,249.9 609.9,263.5 609.9,219 "
                 class="st14" />
              <polygon
                 style="fill:#fdebd9"
                 id="polygon184"
                 points="639.4,249.9 639.4,294.3 609.9,307.9 609.9,263.5 "
                 class="st2" />
              <polygon
                 style="fill:#63ccee"
                 id="polygon186"
                 points="668.9,191.8 668.9,236.3 639.4,249.9 639.4,205.4 "
                 class="st5" />
              <polygon
                 style="fill:#fbdabb"
                 id="polygon188"
                 points="668.9,236.3 668.9,280.7 639.4,294.3 639.4,249.9 "
                 class="st4" />
              <polygon
                 style="fill:#eeceb6"
                 id="polygon190"
                 points="580.4,321.5 580.4,366 551,379.6 551,335.1 "
                 class="st1" />
              <polygon
                 style="fill:#fdebd9"
                 id="polygon192"
                 points="580.4,366 580.4,410.5 551,424 551,379.6 "
                 class="st2" />
              <polygon
                 style="fill:#2ab8ea"
                 id="polygon194"
                 points="609.9,307.9 609.9,352.4 580.4,366 580.4,321.5 "
                 class="st14" />
              <polygon
                 style="fill:#4fc4ca"
                 id="polygon196"
                 points="609.9,352.4 609.9,396.9 580.4,410.5 580.4,366 "
                 class="st13" />
              <polygon
                 style="fill:#eeceb6"
                 id="polygon198"
                 points="639.4,294.3 639.4,338.8 609.9,352.4 609.9,307.9 "
                 class="st1" />
              <polygon
                 style="fill:#47b7b6"
                 id="polygon200"
                 points="639.4,338.8 639.4,383.3 609.9,396.9 609.9,352.4 "
                 class="st15" />
              <polygon
                 style="fill:#f5e4d6"
                 id="polygon202"
                 points="668.9,280.7 668.9,325.2 639.4,338.8 639.4,294.3 "
                 class="st3" />
              <polygon
                 style="fill:#4fc4ca"
                 id="polygon204"
                 points="668.9,325.2 668.9,369.7 639.4,383.3 639.4,338.8 "
                 class="st13" />
              <polygon
                 style="fill:#eeceb6"
                 id="polygon206"
                 points="580.4,410.5 580.4,454.9 551,468.5 551,424 "
                 class="st1" />
              <polygon
                 style="fill:#fdebd9"
                 id="polygon208"
                 points="580.4,454.9 580.4,499.4 551,513 551,468.5 "
                 class="st2" />
              <polygon
                 style="fill:#f5e4d6"
                 id="polygon210"
                 points="609.9,396.9 609.9,441.3 580.4,454.9 580.4,410.5 "
                 class="st3" />
              <polygon
                 style="fill:#fbdabb"
                 id="polygon212"
                 points="609.9,441.3 609.9,485.8 580.4,499.4 580.4,454.9 "
                 class="st4" />
              <polygon
                 style="fill:#eeceb6"
                 id="polygon214"
                 points="639.4,383.3 639.4,427.7 609.9,441.3 609.9,396.9 "
                 class="st1" />
              <polygon
                 style="fill:#fdebd9"
                 id="polygon216"
                 points="639.4,427.7 639.4,472.2 609.9,485.8 609.9,441.3 "
                 class="st2" />
              <polygon
                 style="fill:#f5e4d6"
                 id="polygon218"
                 points="668.9,369.7 668.9,414.1 639.4,427.7 639.4,383.3 "
                 class="st3" />
              <polygon
                 style="fill:#fbdabb"
                 id="polygon220"
                 points="668.9,414.1 668.9,458.6 639.4,472.2 639.4,427.7 "
                 class="st4" />
            </g>
            <g
               id="g280">
              <polygon
                 style="fill:#e8ba98"
                 id="polygon224"
                 points="708.8,87.5 708.8,131.9 679.3,118.3 679.3,73.9 "
                 class="st6" />
              <polygon
                 style="fill:#f4aa69"
                 id="polygon226"
                 points="698.4,161 698.4,205.4 668.9,191.8 668.9,147.4 "
                 class="st7" />
              <polygon
                 style="fill:#00b1bb"
                 id="polygon228"
                 points="742.6,157.3 742.6,201.7 713.1,188.1 713.1,143.7 "
                 class="st12" />
              <polygon
                 style="fill:#e8ba98"
                 id="polygon230"
                 points="775.9,72 775.9,116.5 746.4,102.9 746.4,58.4 "
                 class="st6" />
              <polygon
                 style="fill:#f4aa69"
                 id="polygon232"
                 points="797.4,217.2 797.4,261.6 767.9,248 767.9,203.6 "
                 class="st7" />
              <polygon
                 style="fill:#db9364"
                 id="polygon234"
                 points="835,116.5 835,161 805.5,147.4 805.5,102.9 "
                 class="st8" />
              <polygon
                 style="fill:#008ed0"
                 id="polygon236"
                 points="698.4,205.4 698.4,249.9 668.9,236.3 668.9,191.8 "
                 class="st11" />
              <polygon
                 style="fill:#f4aa69"
                 id="polygon238"
                 points="698.4,249.9 698.4,294.3 668.9,280.7 668.9,236.3 "
                 class="st7" />
              <polygon
                 style="fill:#db9364"
                 id="polygon240"
                 points="727.9,219 727.9,263.5 698.4,249.9 698.4,205.4 "
                 class="st8" />
              <polygon
                 style="fill:#f6b982"
                 id="polygon242"
                 points="727.9,263.5 727.9,307.9 698.4,294.3 698.4,249.9 "
                 class="st9" />
              <polygon
                 style="fill:#f4aa69"
                 id="polygon244"
                 points="757.4,277.1 757.4,321.5 727.9,307.9 727.9,263.5 "
                 class="st7" />
              <polygon
                 style="fill:#db9364"
                 id="polygon246"
                 points="839.8,285.3 839.8,329.8 810.3,316.2 810.3,271.7 "
                 class="st8" />
              <polygon
                 style="fill:#e8ba98"
                 id="polygon248"
                 points="698.4,294.3 698.4,338.8 668.9,325.2 668.9,280.7 "
                 class="st6" />
              <polygon
                 style="fill:#00b1bb"
                 id="polygon250"
                 points="698.4,338.8 698.4,383.3 668.9,369.7 668.9,325.2 "
                 class="st12" />
              <polygon
                 style="fill:#db9364"
                 id="polygon252"
                 points="727.9,307.9 727.9,352.4 698.4,338.8 698.4,294.3 "
                 class="st8" />
              <polygon
                 style="fill:#f6b982"
                 id="polygon254"
                 points="727.9,352.4 727.9,396.9 698.4,383.3 698.4,338.8 "
                 class="st9" />
              <polygon
                 style="fill:#e8ba98"
                 id="polygon256"
                 points="757.4,321.5 757.4,366 727.9,352.4 727.9,307.9 "
                 class="st6" />
              <polygon
                 style="fill:#f4aa69"
                 id="polygon258"
                 points="757.4,366 757.4,410.5 727.9,396.9 727.9,352.4 "
                 class="st7" />
              <polygon
                 style="fill:#db9364"
                 id="polygon260"
                 points="786.8,335.1 786.8,379.6 757.4,366 757.4,321.5 "
                 class="st8" />
              <polygon
                 style="fill:#f6b982"
                 id="polygon262"
                 points="786.8,379.6 786.8,424 757.4,410.5 757.4,366 "
                 class="st9" />
              <polygon
                 style="fill:#e8ba98"
                 id="polygon264"
                 points="698.4,383.3 698.4,427.7 668.9,414.1 668.9,369.7 "
                 class="st6" />
              <polygon
                 style="fill:#f4aa69"
                 id="polygon266"
                 points="698.4,427.7 698.4,472.2 668.9,458.6 668.9,414.1 "
                 class="st7" />
              <polygon
                 style="fill:#db9364"
                 id="polygon268"
                 points="727.9,396.9 727.9,441.3 698.4,427.7 698.4,383.3 "
                 class="st8" />
              <polygon
                 style="fill:#f6b982"
                 id="polygon270"
                 points="727.9,441.3 727.9,485.8 698.4,472.2 698.4,427.7 "
                 class="st9" />
              <polygon
                 style="fill:#e8ba98"
                 id="polygon272"
                 points="757.4,410.5 757.4,454.9 727.9,441.3 727.9,396.9 "
                 class="st6" />
              <polygon
                 style="fill:#f4aa69"
                 id="polygon274"
                 points="757.4,454.9 757.4,499.4 727.9,485.8 727.9,441.3 "
                 class="st7" />
              <polygon
                 style="fill:#db9364"
                 id="polygon276"
                 points="786.8,424 786.8,468.5 757.4,454.9 757.4,410.5 "
                 class="st8" />
              <polygon
                 style="fill:#f6b982"
                 id="polygon278"
                 points="786.8,468.5 786.8,513 757.4,499.4 757.4,454.9 "
                 class="st9" />
            </g>
          </g>
          <g
             id="g1168">
            <g
               id="g4962"
               transform="matrix(0.05620138,0,0,0.05620138,26.308831,0.08167719)">
              <path
                 style="fill:#666666;stroke-width:1.03097188"
                 inkscape:connector-curvature="0"
                 id="path4"
                 d="m 575.48973,270.71148 h 79.48793 v 12.78405 h -32.78491 v 88.97288 h -14.02122 v -88.97288 h -32.6818 z"
                 class="st0" />
              <path
                 style="fill:#666666;stroke-width:1.03097188"
                 inkscape:connector-curvature="0"
                 id="path6"
                 d="m 678.27762,270.71148 h 70.62158 v 12.68095 h -56.70346 v 31.44465 h 50.72382 v 12.68095 h -50.72382 v 32.47562 h 58.55921 V 372.6746 H 678.38072 V 270.71148 Z"
                 class="st0" />
              <path
                 style="fill:#666666;stroke-width:1.03097188"
                 inkscape:connector-curvature="0"
                 id="path8"
                 d="M 846.22295,372.5715 826.0159,340.61138 c -2.37124,0.20619 -4.22699,0.30929 -5.67035,0.30929 H 794.46816 V 372.5715 H 780.55004 V 270.81458 h 39.79551 c 12.88715,0 22.88758,2.98982 29.89819,8.96945 7.01061,5.97964 10.51591,14.43361 10.51591,25.36191 0,8.24778 -1.95885,15.15529 -5.77344,20.82563 -3.8146,5.67035 -9.27875,9.69114 -16.49555,12.16547 l 23.71235,34.43446 z m -25.8774,-44.33179 c 8.76326,0 15.36148,-1.95884 20.10395,-5.77344 4.63938,-3.8146 7.01061,-9.48494 7.01061,-16.90794 0,-7.3199 -2.37123,-12.78405 -7.01061,-16.49555 -4.63937,-3.7115 -11.34069,-5.56725 -20.10395,-5.56725 h -25.87739 v 44.74418 z"
                 class="st0" />
              <path
                 style="fill:#666666;stroke-width:1.03097188"
                 inkscape:connector-curvature="0"
                 id="path10"
                 d="m 958.59888,372.5715 -20.20705,-31.96012 c -2.37123,0.20619 -4.22698,0.30929 -5.67034,0.30929 h -25.8774 V 372.5715 H 892.92597 V 270.81458 h 39.79552 c 12.88715,0 22.88757,2.98982 29.89818,8.96945 7.01061,5.97964 10.51592,14.43361 10.51592,25.36191 0,8.24778 -1.95885,15.15529 -5.77345,20.82563 -3.81459,5.67035 -9.27874,9.69114 -16.49555,12.16547 l 23.71236,34.43446 z m -25.87739,-44.33179 c 8.76326,0 15.36148,-1.95884 20.10395,-5.77344 4.63937,-3.8146 7.01061,-9.48494 7.01061,-16.90794 0,-7.3199 -2.37124,-12.78405 -7.01061,-16.49555 -4.63937,-3.7115 -11.34069,-5.56725 -20.10395,-5.56725 h -25.8774 v 44.74418 z"
                 class="st0" />
              <path
                 style="fill:#666666;stroke-width:1.03097188"
                 inkscape:connector-curvature="0"
                 id="path12"
                 d="m 1080.9752,372.5715 -10.7221,-24.74332 h -53.6105 l -10.619,24.74332 h -14.63981 l 45.25971,-101.75692 h 14.5367 l 45.0534,101.75692 z m -58.9715,-37.42428 h 42.7853 l -21.5473,-49.48665 z"
                 class="st0" />
              <path
                 style="fill:#666666;stroke-width:1.03097188"
                 inkscape:connector-curvature="0"
                 id="path14"
                 d="m 1175.9278,285.66057 c -5.1549,-2.26814 -10.4129,-3.4022 -15.877,-3.4022 -7.2168,0 -13.815,1.75265 -19.7947,5.25795 -5.9796,3.50531 -10.7221,8.24778 -14.2274,14.22741 -3.5053,5.97964 -5.2579,12.57786 -5.2579,19.69157 0,7.1137 1.7526,13.60883 5.2579,19.58846 3.5053,5.97964 8.2478,10.72211 14.2274,14.22742 5.9797,3.5053 12.5779,5.25795 19.7947,5.25795 5.361,0 10.5159,-1.13407 15.6708,-3.29911 5.1548,-2.16504 9.6911,-5.15486 13.7119,-8.96945 l 8.454,9.17565 c -5.1549,5.05176 -11.1345,8.96945 -17.8359,11.85617 -6.8044,2.88673 -13.7119,4.33009 -20.6194,4.33009 -9.6911,0 -18.5575,-2.26814 -26.5991,-6.90752 -8.0415,-4.63937 -14.4336,-10.9283 -19.0729,-18.86678 -4.6394,-7.93849 -7.0107,-16.70175 -7.0107,-26.28978 0,-9.48495 2.3713,-18.24821 7.0107,-26.08359 4.7424,-7.93849 11.1345,-14.12432 19.2791,-18.6606 8.1447,-4.53627 17.1142,-6.80441 26.9084,-6.80441 7.1137,0 13.9181,1.34026 20.6194,4.02079 6.5983,2.68053 12.3717,6.39203 17.2173,11.23759 l -8.2478,10.00043 c -4.0208,-4.12389 -8.454,-7.3199 -13.6088,-9.58804 z"
                 class="st0" />
              <path
                 style="fill:#666666;stroke-width:1.03097188"
                 inkscape:connector-curvature="0"
                 id="path16"
                 d="m 1293.7678,276.69112 c 8.1447,4.53627 14.6398,10.8252 19.3823,18.66059 4.7425,7.93848 7.1137,16.59865 7.1137,26.08359 0,9.48494 -2.3712,18.2482 -7.1137,26.28978 -4.7425,8.04158 -11.2376,14.33051 -19.3823,18.86679 -8.1446,4.63937 -17.2172,6.90751 -27.0114,6.90751 -9.7942,0 -18.7637,-2.26814 -27.0115,-6.90751 -8.1447,-4.63938 -14.6398,-10.92831 -19.3823,-18.86679 -4.7424,-8.04158 -7.1137,-16.70174 -7.1137,-26.28978 0,-9.48494 2.3713,-18.2482 7.1137,-26.08359 4.7425,-7.93848 11.2376,-14.12432 19.3823,-18.66059 8.1447,-4.53628 17.1142,-6.80442 27.0115,-6.80442 9.7942,0 18.7637,2.26814 27.0114,6.80442 z m -46.5999,10.9283 c -6.0827,3.5053 -10.9283,8.24777 -14.4336,14.22741 -3.6084,5.97964 -5.361,12.57786 -5.361,19.69157 0,7.2168 1.7526,13.81502 5.361,19.79466 3.6084,5.97963 8.454,10.8252 14.4336,14.3305 6.0828,3.50531 12.5779,5.25796 19.6916,5.25796 7.1137,0 13.6088,-1.75265 19.5884,-5.25796 5.9797,-3.5053 10.7222,-8.35087 14.2275,-14.3305 3.5053,-5.97964 5.361,-12.57786 5.361,-19.79466 0,-7.21681 -1.7526,-13.71193 -5.361,-19.69157 -3.5053,-5.97964 -8.2478,-10.72211 -14.2275,-14.22741 -5.9796,-3.5053 -12.4747,-5.25796 -19.5884,-5.25796 -7.1137,0 -13.6088,1.75266 -19.6916,5.25796 z"
                 class="st0" />
              <path
                 style="fill:#666666;stroke-width:1.03097188"
                 inkscape:connector-curvature="0"
                 id="path18"
                 d="m 1332.9448,270.71148 h 79.4879 v 12.78405 h -32.7849 v 88.97288 h -13.9181 v -88.97288 h -32.6818 v -12.78405 z"
                 class="st0" />
              <path
                 style="fill:#666666;stroke-width:1.03097188"
                 inkscape:connector-curvature="0"
                 id="path20"
                 d="m 1422.6393,270.71148 h 79.488 v 12.78405 h -32.7849 v 88.97288 h -13.9182 v -88.97288 h -32.6818 v -12.78405 z"
                 class="st0" />
              <path
                 style="fill:#666666;stroke-width:1.03097188"
                 inkscape:connector-curvature="0"
                 id="path22"
                 d="m 1591.3063,372.5715 -10.7221,-24.74332 h -53.6105 l -10.619,24.74332 h -14.6398 l 45.2596,-101.75692 h 14.5368 l 45.0534,101.75692 z m -58.8685,-37.42428 h 42.7854 l -21.5473,-49.48665 z"
                 class="st0" />
            </g>
            <g
               aria-label="Preview App"
               style="font-style:normal;font-variant:normal;font-weight:normal;font-stretch:normal;font-size:4.23333359px;line-height:1.25;font-family:Lato;-inkscape-font-specification:Lato;letter-spacing:0px;word-spacing:0px;fill:#0b4566;fill-opacity:1;stroke:none;stroke-width:0.25939807"
               id="text1353">
              <path
                 d="m 61.024972,25.288664 v 1.609548 h -0.542947 v -4.012847 h 1.535135 q 0.642166,0 0.997699,0.330729 0.355534,0.33073 0.355534,0.870921 0,0.548459 -0.355534,0.876432 -0.355533,0.325217 -0.997699,0.325217 z m 0,-0.424436 h 0.992188 q 0.407899,0 0.609093,-0.21773 0.201193,-0.220486 0.201193,-0.553971 0,-0.333486 -0.203949,-0.556728 -0.201194,-0.223242 -0.606337,-0.223242 h -0.992188 z"
                 style="font-style:normal;font-variant:normal;font-weight:normal;font-stretch:normal;font-size:5.64444447px;font-family:Roboto;-inkscape-font-specification:Roboto;fill:#0b4566;fill-opacity:1;stroke-width:0.25939807"
                 id="path1125" />
              <path
                 d="m 65.407134,24.395695 -0.278364,-0.01654 q -0.214974,0 -0.363802,0.101974 -0.146072,0.101975 -0.225998,0.286632 v 2.130447 h -0.542947 v -2.982074 h 0.485069 l 0.05236,0.43546 q 0.12678,-0.231511 0.311437,-0.361046 0.187413,-0.129536 0.429948,-0.129536 0.06063,0 0.115755,0.01103 0.05512,0.0083 0.09095,0.01929 z"
                 style="font-style:normal;font-variant:normal;font-weight:normal;font-stretch:normal;font-size:5.64444447px;font-family:Roboto;-inkscape-font-specification:Roboto;fill:#0b4566;fill-opacity:1;stroke-width:0.25939807"
                 id="path1127" />
              <path
                 d="m 67.118657,26.95609 q -0.622873,0 -0.992187,-0.413411 -0.366558,-0.416168 -0.366558,-1.077626 v -0.121268 q 0,-0.636653 0.377582,-1.058333 0.380339,-0.424436 0.898481,-0.424436 0.603581,0 0.912261,0.363802 0.308681,0.363802 0.308681,0.970139 v 0.338998 h -1.934766 l -0.0083,0.01378 q 0.0083,0.429948 0.21773,0.708312 0.209462,0.275607 0.587044,0.275607 0.275608,0 0.482314,-0.07717 0.209461,-0.07993 0.361046,-0.21773 l 0.212218,0.352778 q -0.159853,0.157096 -0.42168,0.261827 -0.261827,0.104731 -0.633898,0.104731 z m -0.08268,-2.667882 q -0.272852,0 -0.465777,0.231511 -0.192925,0.228754 -0.237022,0.576019 l 0.0055,0.01378 h 1.375282 v -0.07166 q 0,-0.319705 -0.170877,-0.534679 -0.170877,-0.214974 -0.507118,-0.214974 z"
                 style="font-style:normal;font-variant:normal;font-weight:normal;font-stretch:normal;font-size:5.64444447px;font-family:Roboto;-inkscape-font-specification:Roboto;fill:#0b4566;fill-opacity:1;stroke-width:0.25939807"
                 id="path1129" />
              <path
                 d="m 69.830637,26.019024 0.04685,0.209462 h 0.01654 l 0.05237,-0.209462 0.686263,-2.102886 h 0.553971 l -1.096918,2.982074 h -0.410656 l -1.110698,-2.982074 h 0.556727 z"
                 style="font-style:normal;font-variant:normal;font-weight:normal;font-stretch:normal;font-size:5.64444447px;font-family:Roboto;-inkscape-font-specification:Roboto;fill:#0b4566;fill-opacity:1;stroke-width:0.25939807"
                 id="path1131" />
              <path
                 d="m 72.267008,26.898212 h -0.542947 v -2.982074 h 0.542947 z m 0,-3.745507 h -0.542947 v -0.553972 h 0.542947 z"
                 style="font-style:normal;font-variant:normal;font-weight:normal;font-stretch:normal;font-size:5.64444447px;font-family:Roboto;-inkscape-font-specification:Roboto;fill:#0b4566;fill-opacity:1;stroke-width:0.25939807"
                 id="path1133" />
              <path
                 d="m 74.339577,26.95609 q -0.622873,0 -0.992187,-0.413411 -0.366558,-0.416168 -0.366558,-1.077626 v -0.121268 q 0,-0.636653 0.377582,-1.058333 0.380339,-0.424436 0.898481,-0.424436 0.603581,0 0.912261,0.363802 0.308681,0.363802 0.308681,0.970139 v 0.338998 h -1.934766 l -0.0083,0.01378 q 0.0083,0.429948 0.21773,0.708312 0.209462,0.275607 0.587044,0.275607 0.275608,0 0.482314,-0.07717 0.209462,-0.07993 0.361046,-0.21773 l 0.212218,0.352778 q -0.159853,0.157096 -0.42168,0.261827 -0.261827,0.104731 -0.633898,0.104731 z m -0.08268,-2.667882 q -0.272851,0 -0.465777,0.231511 -0.192925,0.228754 -0.237022,0.576019 l 0.0055,0.01378 h 1.375282 v -0.07166 q 0,-0.319705 -0.170877,-0.534679 -0.170877,-0.214974 -0.507118,-0.214974 z"
                 style="font-style:normal;font-variant:normal;font-weight:normal;font-stretch:normal;font-size:5.64444447px;font-family:Roboto;-inkscape-font-specification:Roboto;fill:#0b4566;fill-opacity:1;stroke-width:0.25939807"
                 id="path1135" />
              <path
                 d="m 76.853119,25.812318 0.06339,0.361046 h 0.01654 l 0.07717,-0.361046 0.595312,-1.89618 h 0.43546 l 0.598069,1.89618 0.08544,0.402387 h 0.01654 l 0.07993,-0.402387 0.468533,-1.89618 h 0.540191 l -0.865408,2.982074 h -0.438216 l -0.57602,-1.816254 -0.124024,-0.507118 -0.01654,0.0028 -0.118512,0.504362 -0.567751,1.816254 h -0.438216 l -0.865408,-2.982074 h 0.540191 z"
                 style="font-style:normal;font-variant:normal;font-weight:normal;font-stretch:normal;font-size:5.64444447px;font-family:Roboto;-inkscape-font-specification:Roboto;fill:#0b4566;fill-opacity:1;stroke-width:0.25939807"
                 id="path1137" />
              <path
                 d="m 84.043723,25.864684 h -1.681207 l -0.380338,1.033528 h -0.553971 l 1.551671,-4.012847 h 0.465776 l 1.526867,4.012847 h -0.553972 z m -1.513086,-0.454753 h 1.350478 l -0.661459,-1.827278 h -0.01654 z"
                 style="font-style:normal;font-variant:normal;font-weight:normal;font-stretch:normal;font-size:5.64444447px;font-family:Roboto;-inkscape-font-specification:Roboto;fill:#0b4566;fill-opacity:1;stroke-width:0.25939807"
                 id="path1139" />
              <path
                 d="m 87.968375,25.520174 q 0,0.644922 -0.308681,1.041797 -0.30868,0.394119 -0.851627,0.394119 -0.275608,0 -0.48507,-0.09095 -0.206705,-0.09371 -0.352777,-0.278364 v 1.457964 h -0.542948 v -4.128602 h 0.416168 l 0.08544,0.38585 q 0.146072,-0.214973 0.363802,-0.327973 0.21773,-0.112999 0.507119,-0.112999 0.553971,0 0.859895,0.440972 0.308681,0.438217 0.308681,1.160309 z m -0.542947,-0.05788 q 0,-0.507118 -0.201194,-0.832335 -0.198437,-0.327974 -0.587044,-0.327974 -0.234266,0 -0.399631,0.107487 -0.165365,0.104731 -0.267339,0.289388 v 1.441428 q 0.101974,0.184658 0.267339,0.289388 0.165365,0.101975 0.405143,0.101975 0.385851,0 0.584288,-0.28112 0.198438,-0.283875 0.198438,-0.73036 z"
                 style="font-style:normal;font-variant:normal;font-weight:normal;font-stretch:normal;font-size:5.64444447px;font-family:Roboto;-inkscape-font-specification:Roboto;fill:#0b4566;fill-opacity:1;stroke-width:0.25939807"
                 id="path1141" />
              <path
                 d="m 91.176448,25.520174 q 0,0.644922 -0.308681,1.041797 -0.308681,0.394119 -0.851628,0.394119 -0.275607,0 -0.485069,-0.09095 -0.206706,-0.09371 -0.352778,-0.278364 v 1.457964 h -0.542947 v -4.128602 h 0.416168 l 0.08544,0.38585 q 0.146072,-0.214973 0.363802,-0.327973 0.21773,-0.112999 0.507118,-0.112999 0.553972,0 0.859896,0.440972 0.308681,0.438217 0.308681,1.160309 z m -0.542947,-0.05788 q 0,-0.507118 -0.201194,-0.832335 -0.198438,-0.327974 -0.587044,-0.327974 -0.234267,0 -0.399631,0.107487 -0.165365,0.104731 -0.26734,0.289388 v 1.441428 q 0.101975,0.184658 0.26734,0.289388 0.165364,0.101975 0.405143,0.101975 0.385851,0 0.584288,-0.28112 0.198438,-0.283875 0.198438,-0.73036 z"
                 style="font-style:normal;font-variant:normal;font-weight:normal;font-stretch:normal;font-size:5.64444447px;font-family:Roboto;-inkscape-font-specification:Roboto;fill:#0b4566;fill-opacity:1;stroke-width:0.25939807"
                 id="path1143" />
            </g>
          </g>
        </g>
      </g>
    </g>
  </g>
  <style
     id="style2"
     type="text/css">
	.st0{fill:#808285;}
	.st1{fill:#EECEB6;}
	.st2{fill:#FDEBD9;}
	.st3{fill:#F5E4D6;}
	.st4{fill:#FBDABB;}
	.st5{fill:#63CCEE;}
	.st6{fill:#E8BA98;}
	.st7{fill:#F4AA69;}
	.st8{fill:#DB9364;}
	.st9{fill:#F6B982;}
	.st10{fill:#00A4DA;}
	.st11{fill:#008ED0;}
	.st12{fill:#00B1BB;}
	.st13{fill:#4FC4CA;}
	.st14{fill:#2AB8EA;}
	.st15{fill:#47B7B6;}
</style>
</svg>
