<?xml version="1.0" encoding="UTF-8" standalone="no"?>
<!-- Generator: Adobe Illustrator 22.1.0, SVG Export Plug-In . SVG Version: 6.00 Build 0)  -->

<svg
   xmlns:dc="http://purl.org/dc/elements/1.1/"
   xmlns:cc="http://creativecommons.org/ns#"
   xmlns:rdf="http://www.w3.org/1999/02/22-rdf-syntax-ns#"
   xmlns:svg="http://www.w3.org/2000/svg"
   xmlns="http://www.w3.org/2000/svg"
   xmlns:sodipodi="http://sodipodi.sourceforge.net/DTD/sodipodi-0.dtd"
   xmlns:inkscape="http://www.inkscape.org/namespaces/inkscape"
   version="1.1"
   id="Layer_1"
   x="0px"
   y="0px"
   viewBox="0 0 2099.4974 502.60001"
   xml:space="preserve"
   sodipodi:docname="logo-banner.svg"
   width="699.83246"
   height="167.53334"
   inkscape:version="0.92.2 (5c3e80d, 2017-08-06)"
   inkscape:export-filename="C:\Users\dimh\work\terracotta\docs\_figures\logo-banner-700px.png"
   inkscape:export-xdpi="32.759998"
   inkscape:export-ydpi="32.759998"><metadata
     id="metadata291"><rdf:RDF><cc:Work
         rdf:about=""><dc:format>image/svg+xml</dc:format><dc:type
           rdf:resource="http://purl.org/dc/dcmitype/StillImage" /><dc:title></dc:title></cc:Work></rdf:RDF></metadata><defs
     id="defs289" /><sodipodi:namedview
     pagecolor="#ffffff"
     bordercolor="#666666"
     borderopacity="1"
     objecttolerance="10"
     gridtolerance="10"
     guidetolerance="10"
     inkscape:pageopacity="0"
     inkscape:pageshadow="2"
     inkscape:window-width="3072"
     inkscape:window-height="1665"
     id="namedview287"
     showgrid="false"
     fit-margin-top="8"
     fit-margin-right="8"
     fit-margin-bottom="8"
     fit-margin-left="8"
     inkscape:pagecheckerboard="false"
     inkscape:zoom="1.7433396"
     inkscape:cx="415.79722"
     inkscape:cy="63.826138"
     inkscape:window-x="-8"
     inkscape:window-y="-8"
     inkscape:window-maximized="1"
     inkscape:current-layer="Layer_1"
     scale-x="3" /><style
     type="text/css"
     id="style2">
	.st0{fill:#808285;}
	.st1{fill:#EECEB6;}
	.st2{fill:#FDEBD9;}
	.st3{fill:#F5E4D6;}
	.st4{fill:#FBDABB;}
	.st5{fill:#63CCEE;}
	.st6{fill:#E8BA98;}
	.st7{fill:#F4AA69;}
	.st8{fill:#DB9364;}
	.st9{fill:#F6B982;}
	.st10{fill:#00A4DA;}
	.st11{fill:#008ED0;}
	.st12{fill:#00B1BB;}
	.st13{fill:#4FC4CA;}
	.st14{fill:#2AB8EA;}
	.st15{fill:#47B7B6;}
</style><g
     id="g4962"
     transform="matrix(1.4430176,0,0,1.4430176,-242.80376,-200.37193)"><path
       style="fill:#666666;stroke-width:1.03097188"
       inkscape:connector-curvature="0"
       id="path4"
       d="m 575.48973,270.71148 h 79.48793 v 12.78405 h -32.78491 v 88.97288 h -14.02122 v -88.97288 h -32.6818 z"
       class="st0" /><path
       style="fill:#666666;stroke-width:1.03097188"
       inkscape:connector-curvature="0"
       id="path6"
       d="m 678.27762,270.71148 h 70.62158 v 12.68095 h -56.70346 v 31.44465 h 50.72382 v 12.68095 h -50.72382 v 32.47562 h 58.55921 V 372.6746 H 678.38072 V 270.71148 Z"
       class="st0" /><path
       style="fill:#666666;stroke-width:1.03097188"
       inkscape:connector-curvature="0"
       id="path8"
       d="M 846.22295,372.5715 826.0159,340.61138 c -2.37124,0.20619 -4.22699,0.30929 -5.67035,0.30929 H 794.46816 V 372.5715 H 780.55004 V 270.81458 h 39.79551 c 12.88715,0 22.88758,2.98982 29.89819,8.96945 7.01061,5.97964 10.51591,14.43361 10.51591,25.36191 0,8.24778 -1.95885,15.15529 -5.77344,20.82563 -3.8146,5.67035 -9.27875,9.69114 -16.49555,12.16547 l 23.71235,34.43446 z m -25.8774,-44.33179 c 8.76326,0 15.36148,-1.95884 20.10395,-5.77344 4.63938,-3.8146 7.01061,-9.48494 7.01061,-16.90794 0,-7.3199 -2.37123,-12.78405 -7.01061,-16.49555 -4.63937,-3.7115 -11.34069,-5.56725 -20.10395,-5.56725 h -25.87739 v 44.74418 z"
       class="st0" /><path
       style="fill:#666666;stroke-width:1.03097188"
       inkscape:connector-curvature="0"
       id="path10"
       d="m 958.59888,372.5715 -20.20705,-31.96012 c -2.37123,0.20619 -4.22698,0.30929 -5.67034,0.30929 h -25.8774 V 372.5715 H 892.92597 V 270.81458 h 39.79552 c 12.88715,0 22.88757,2.98982 29.89818,8.96945 7.01061,5.97964 10.51592,14.43361 10.51592,25.36191 0,8.24778 -1.95885,15.15529 -5.77345,20.82563 -3.81459,5.67035 -9.27874,9.69114 -16.49555,12.16547 l 23.71236,34.43446 z m -25.87739,-44.33179 c 8.76326,0 15.36148,-1.95884 20.10395,-5.77344 4.63937,-3.8146 7.01061,-9.48494 7.01061,-16.90794 0,-7.3199 -2.37124,-12.78405 -7.01061,-16.49555 -4.63937,-3.7115 -11.34069,-5.56725 -20.10395,-5.56725 h -25.8774 v 44.74418 z"
       class="st0" /><path
       style="fill:#666666;stroke-width:1.03097188"
       inkscape:connector-curvature="0"
       id="path12"
       d="m 1080.9752,372.5715 -10.7221,-24.74332 h -53.6105 l -10.619,24.74332 h -14.63981 l 45.25971,-101.75692 h 14.5367 l 45.0534,101.75692 z m -58.9715,-37.42428 h 42.7853 l -21.5473,-49.48665 z"
       class="st0" /><path
       style="fill:#666666;stroke-width:1.03097188"
       inkscape:connector-curvature="0"
       id="path14"
       d="m 1175.9278,285.66057 c -5.1549,-2.26814 -10.4129,-3.4022 -15.877,-3.4022 -7.2168,0 -13.815,1.75265 -19.7947,5.25795 -5.9796,3.50531 -10.7221,8.24778 -14.2274,14.22741 -3.5053,5.97964 -5.2579,12.57786 -5.2579,19.69157 0,7.1137 1.7526,13.60883 5.2579,19.58846 3.5053,5.97964 8.2478,10.72211 14.2274,14.22742 5.9797,3.5053 12.5779,5.25795 19.7947,5.25795 5.361,0 10.5159,-1.13407 15.6708,-3.29911 5.1548,-2.16504 9.6911,-5.15486 13.7119,-8.96945 l 8.454,9.17565 c -5.1549,5.05176 -11.1345,8.96945 -17.8359,11.85617 -6.8044,2.88673 -13.7119,4.33009 -20.6194,4.33009 -9.6911,0 -18.5575,-2.26814 -26.5991,-6.90752 -8.0415,-4.63937 -14.4336,-10.9283 -19.0729,-18.86678 -4.6394,-7.93849 -7.0107,-16.70175 -7.0107,-26.28978 0,-9.48495 2.3713,-18.24821 7.0107,-26.08359 4.7424,-7.93849 11.1345,-14.12432 19.2791,-18.6606 8.1447,-4.53627 17.1142,-6.80441 26.9084,-6.80441 7.1137,0 13.9181,1.34026 20.6194,4.02079 6.5983,2.68053 12.3717,6.39203 17.2173,11.23759 l -8.2478,10.00043 c -4.0208,-4.12389 -8.454,-7.3199 -13.6088,-9.58804 z"
       class="st0" /><path
       style="fill:#666666;stroke-width:1.03097188"
       inkscape:connector-curvature="0"
       id="path16"
       d="m 1293.7678,276.69112 c 8.1447,4.53627 14.6398,10.8252 19.3823,18.66059 4.7425,7.93848 7.1137,16.59865 7.1137,26.08359 0,9.48494 -2.3712,18.2482 -7.1137,26.28978 -4.7425,8.04158 -11.2376,14.33051 -19.3823,18.86679 -8.1446,4.63937 -17.2172,6.90751 -27.0114,6.90751 -9.7942,0 -18.7637,-2.26814 -27.0115,-6.90751 -8.1447,-4.63938 -14.6398,-10.92831 -19.3823,-18.86679 -4.7424,-8.04158 -7.1137,-16.70174 -7.1137,-26.28978 0,-9.48494 2.3713,-18.2482 7.1137,-26.08359 4.7425,-7.93848 11.2376,-14.12432 19.3823,-18.66059 8.1447,-4.53628 17.1142,-6.80442 27.0115,-6.80442 9.7942,0 18.7637,2.26814 27.0114,6.80442 z m -46.5999,10.9283 c -6.0827,3.5053 -10.9283,8.24777 -14.4336,14.22741 -3.6084,5.97964 -5.361,12.57786 -5.361,19.69157 0,7.2168 1.7526,13.81502 5.361,19.79466 3.6084,5.97963 8.454,10.8252 14.4336,14.3305 6.0828,3.50531 12.5779,5.25796 19.6916,5.25796 7.1137,0 13.6088,-1.75265 19.5884,-5.25796 5.9797,-3.5053 10.7222,-8.35087 14.2275,-14.3305 3.5053,-5.97964 5.361,-12.57786 5.361,-19.79466 0,-7.21681 -1.7526,-13.71193 -5.361,-19.69157 -3.5053,-5.97964 -8.2478,-10.72211 -14.2275,-14.22741 -5.9796,-3.5053 -12.4747,-5.25796 -19.5884,-5.25796 -7.1137,0 -13.6088,1.75266 -19.6916,5.25796 z"
       class="st0" /><path
       style="fill:#666666;stroke-width:1.03097188"
       inkscape:connector-curvature="0"
       id="path18"
       d="m 1332.9448,270.71148 h 79.4879 v 12.78405 h -32.7849 v 88.97288 h -13.9181 v -88.97288 h -32.6818 v -12.78405 z"
       class="st0" /><path
       style="fill:#666666;stroke-width:1.03097188"
       inkscape:connector-curvature="0"
       id="path20"
       d="m 1422.6393,270.71148 h 79.488 v 12.78405 h -32.7849 v 88.97288 h -13.9182 v -88.97288 h -32.6818 v -12.78405 z"
       class="st0" /><path
       style="fill:#666666;stroke-width:1.03097188"
       inkscape:connector-curvature="0"
       id="path22"
       d="m 1591.3063,372.5715 -10.7221,-24.74332 h -53.6105 l -10.619,24.74332 h -14.6398 l 45.2596,-101.75692 h 14.5368 l 45.0534,101.75692 z m -58.8685,-37.42428 h 42.7854 l -21.5473,-49.48665 z"
       class="st0" /></g><g
     id="g282"
     transform="translate(-291.1,-34.4)"><g
       id="g90"><polygon
         style="fill:#eeceb6"
         id="polygon26"
         points="315.1,201.7 315.1,157.3 344.6,143.7 344.6,188.1 "
         class="st1" /><polygon
         style="fill:#fdebd9"
         id="polygon28"
         points="315.1,246.2 315.1,201.7 344.6,188.1 344.6,232.6 "
         class="st2" /><polygon
         style="fill:#f5e4d6"
         id="polygon30"
         points="344.6,188.1 344.6,143.7 374.1,130.1 374.1,174.6 "
         class="st3" /><polygon
         style="fill:#fbdabb"
         id="polygon32"
         points="344.6,232.6 344.6,188.1 374.1,174.6 374.1,219 "
         class="st4" /><polygon
         style="fill:#eeceb6"
         id="polygon34"
         points="374.1,174.6 374.1,130.1 403.5,116.5 403.5,161 "
         class="st1" /><polygon
         style="fill:#fdebd9"
         id="polygon36"
         points="374.1,219 374.1,174.6 403.5,161 403.5,205.4 "
         class="st2" /><polygon
         style="fill:#f5e4d6"
         id="polygon38"
         points="403.5,161 403.5,116.5 433,102.9 433,147.4 "
         class="st3" /><polygon
         style="fill:#fbdabb"
         id="polygon40"
         points="403.5,205.4 403.5,161 433,147.4 433,191.8 "
         class="st4" /><polygon
         style="fill:#eeceb6"
         id="polygon42"
         points="315.1,290.7 315.1,246.2 344.6,232.6 344.6,277.1 "
         class="st1" /><polygon
         style="fill:#fdebd9"
         id="polygon44"
         points="315.1,335.1 315.1,290.7 344.6,277.1 344.6,321.5 "
         class="st2" /><polygon
         style="fill:#f5e4d6"
         id="polygon46"
         points="344.6,277.1 344.6,232.6 374.1,219 374.1,263.5 "
         class="st3" /><polygon
         style="fill:#fbdabb"
         id="polygon48"
         points="344.6,321.5 344.6,277.1 374.1,263.5 374.1,307.9 "
         class="st4" /><polygon
         style="fill:#eeceb6"
         id="polygon50"
         points="374.1,263.5 374.1,219 403.5,205.4 403.5,249.9 "
         class="st1" /><polygon
         style="fill:#fdebd9"
         id="polygon52"
         points="374.1,307.9 374.1,263.5 403.5,249.9 403.5,294.3 "
         class="st2" /><polygon
         style="fill:#63ccee"
         id="polygon54"
         points="403.5,249.9 403.5,205.4 433,191.8 433,236.3 "
         class="st5" /><polygon
         style="fill:#fbdabb"
         id="polygon56"
         points="403.5,294.3 403.5,249.9 433,236.3 433,280.7 "
         class="st4" /><polygon
         style="fill:#eeceb6"
         id="polygon58"
         points="315.1,379.6 315.1,335.1 344.6,321.5 344.6,366 "
         class="st1" /><polygon
         style="fill:#fdebd9"
         id="polygon60"
         points="315.1,424 315.1,379.6 344.6,366 344.6,410.5 "
         class="st2" /><polygon
         style="fill:#f5e4d6"
         id="polygon62"
         points="344.6,366 344.6,321.5 374.1,307.9 374.1,352.4 "
         class="st3" /><polygon
         style="fill:#fbdabb"
         id="polygon64"
         points="344.6,410.5 344.6,366 374.1,352.4 374.1,396.9 "
         class="st4" /><polygon
         style="fill:#eeceb6"
         id="polygon66"
         points="374.1,352.4 374.1,307.9 403.5,294.3 403.5,338.8 "
         class="st1" /><polygon
         style="fill:#fdebd9"
         id="polygon68"
         points="374.1,396.9 374.1,352.4 403.5,338.8 403.5,383.3 "
         class="st2" /><polygon
         style="fill:#f5e4d6"
         id="polygon70"
         points="403.5,338.8 403.5,294.3 433,280.7 433,325.2 "
         class="st3" /><polygon
         style="fill:#fbdabb"
         id="polygon72"
         points="403.5,383.3 403.5,338.8 433,325.2 433,369.7 "
         class="st4" /><polygon
         style="fill:#eeceb6"
         id="polygon74"
         points="315.1,468.5 315.1,424 344.6,410.5 344.6,454.9 "
         class="st1" /><polygon
         style="fill:#fdebd9"
         id="polygon76"
         points="315.1,513 315.1,468.5 344.6,454.9 344.6,499.4 "
         class="st2" /><polygon
         style="fill:#f5e4d6"
         id="polygon78"
         points="344.6,454.9 344.6,410.5 374.1,396.9 374.1,441.3 "
         class="st3" /><polygon
         style="fill:#fbdabb"
         id="polygon80"
         points="344.6,499.4 344.6,454.9 374.1,441.3 374.1,485.8 "
         class="st4" /><polygon
         style="fill:#eeceb6"
         id="polygon82"
         points="374.1,441.3 374.1,396.9 403.5,383.3 403.5,427.7 "
         class="st1" /><polygon
         style="fill:#fdebd9"
         id="polygon84"
         points="374.1,485.8 374.1,441.3 403.5,427.7 403.5,472.2 "
         class="st2" /><polygon
         style="fill:#f5e4d6"
         id="polygon86"
         points="403.5,427.7 403.5,383.3 433,369.7 433,414.1 "
         class="st3" /><polygon
         style="fill:#fbdabb"
         id="polygon88"
         points="403.5,472.2 403.5,427.7 433,414.1 433,458.6 "
         class="st4" /></g><g
       id="g156"><polygon
         style="fill:#e8ba98"
         id="polygon92"
         points="433,147.4 433,102.9 462.5,116.5 462.5,161 "
         class="st6" /><polygon
         style="fill:#f4aa69"
         id="polygon94"
         points="433,191.8 433,147.4 462.5,161 462.5,205.4 "
         class="st7" /><polygon
         style="fill:#db9364"
         id="polygon96"
         points="462.5,161 462.5,116.5 492,130.1 492,174.6 "
         class="st8" /><polygon
         style="fill:#f6b982"
         id="polygon98"
         points="462.5,205.4 462.5,161 492,174.6 492,219 "
         class="st9" /><polygon
         style="fill:#e8ba98"
         id="polygon100"
         points="492,174.6 492,130.1 521.5,143.7 521.5,188.1 "
         class="st6" /><polygon
         style="fill:#f4aa69"
         id="polygon102"
         points="492,219 492,174.6 521.5,188.1 521.5,232.6 "
         class="st7" /><polygon
         style="fill:#db9364"
         id="polygon104"
         points="521.5,188.1 521.5,143.7 551,157.3 551,201.7 "
         class="st8" /><polygon
         style="fill:#f6b982"
         id="polygon106"
         points="521.5,232.6 521.5,188.1 551,201.7 551,246.2 "
         class="st9" /><polygon
         style="fill:#00a4da"
         id="polygon108"
         points="433,236.3 433,191.8 462.5,205.4 462.5,249.9 "
         class="st10" /><polygon
         style="fill:#f4aa69"
         id="polygon110"
         points="433,280.7 433,236.3 462.5,249.9 462.5,294.3 "
         class="st7" /><polygon
         style="fill:#008ed0"
         id="polygon112"
         points="462.5,249.9 462.5,205.4 492,219 492,263.5 "
         class="st11" /><polygon
         style="fill:#00b1bb"
         id="polygon114"
         points="462.5,294.3 462.5,249.9 492,263.5 492,307.9 "
         class="st12" /><polygon
         style="fill:#00a4da"
         id="polygon116"
         points="492,263.5 492,219 521.5,232.6 521.5,277.1 "
         class="st10" /><polygon
         style="fill:#f4aa69"
         id="polygon118"
         points="492,307.9 492,263.5 521.5,277.1 521.5,321.5 "
         class="st7" /><polygon
         style="fill:#008ed0"
         id="polygon120"
         points="521.5,277.1 521.5,232.6 551,246.2 551,290.7 "
         class="st11" /><polygon
         style="fill:#f6b982"
         id="polygon122"
         points="521.5,321.5 521.5,277.1 551,290.7 551,335.1 "
         class="st9" /><polygon
         style="fill:#e8ba98"
         id="polygon124"
         points="433,325.2 433,280.7 462.5,294.3 462.5,338.8 "
         class="st6" /><polygon
         style="fill:#f4aa69"
         id="polygon126"
         points="433,369.7 433,325.2 462.5,338.8 462.5,383.3 "
         class="st7" /><polygon
         style="fill:#008ed0"
         id="polygon128"
         points="462.5,338.8 462.5,294.3 492,307.9 492,352.4 "
         class="st11" /><polygon
         style="fill:#00b1bb"
         id="polygon130"
         points="462.5,383.3 462.5,338.8 492,352.4 492,396.9 "
         class="st12" /><polygon
         style="fill:#e8ba98"
         id="polygon132"
         points="492,352.4 492,307.9 521.5,321.5 521.5,366 "
         class="st6" /><polygon
         style="fill:#f4aa69"
         id="polygon134"
         points="492,396.9 492,352.4 521.5,366 521.5,410.5 "
         class="st7" /><polygon
         style="fill:#db9364"
         id="polygon136"
         points="521.5,366 521.5,321.5 551,335.1 551,379.6 "
         class="st8" /><polygon
         style="fill:#f6b982"
         id="polygon138"
         points="521.5,410.5 521.5,366 551,379.6 551,424 "
         class="st9" /><polygon
         style="fill:#e8ba98"
         id="polygon140"
         points="433,414.1 433,369.7 462.5,383.3 462.5,427.7 "
         class="st6" /><polygon
         style="fill:#f4aa69"
         id="polygon142"
         points="433,458.6 433,414.1 462.5,427.7 462.5,472.2 "
         class="st7" /><polygon
         style="fill:#db9364"
         id="polygon144"
         points="462.5,427.7 462.5,383.3 492,396.9 492,441.3 "
         class="st8" /><polygon
         style="fill:#f6b982"
         id="polygon146"
         points="462.5,472.2 462.5,427.7 492,441.3 492,485.8 "
         class="st9" /><polygon
         style="fill:#e8ba98"
         id="polygon148"
         points="492,441.3 492,396.9 521.5,410.5 521.5,454.9 "
         class="st6" /><polygon
         style="fill:#f4aa69"
         id="polygon150"
         points="492,485.8 492,441.3 521.5,454.9 521.5,499.4 "
         class="st7" /><polygon
         style="fill:#db9364"
         id="polygon152"
         points="521.5,454.9 521.5,410.5 551,424 551,468.5 "
         class="st8" /><polygon
         style="fill:#f6b982"
         id="polygon154"
         points="521.5,499.4 521.5,454.9 551,468.5 551,513 "
         class="st9" /></g><g
       id="g222"><polygon
         style="fill:#eeceb6"
         id="polygon158"
         points="551,201.7 551,157.3 580.4,143.7 580.4,188.1 "
         class="st1" /><polygon
         style="fill:#fdebd9"
         id="polygon160"
         points="551,246.2 551,201.7 580.4,188.1 580.4,232.6 "
         class="st2" /><polygon
         style="fill:#f5e4d6"
         id="polygon162"
         points="580.4,188.1 580.4,143.7 609.9,130.1 609.9,174.6 "
         class="st3" /><polygon
         style="fill:#fbdabb"
         id="polygon164"
         points="580.4,232.6 580.4,188.1 609.9,174.6 609.9,219 "
         class="st4" /><polygon
         style="fill:#eeceb6"
         id="polygon166"
         points="609.9,174.6 609.9,130.1 639.4,116.5 639.4,161 "
         class="st1" /><polygon
         style="fill:#fdebd9"
         id="polygon168"
         points="609.9,219 609.9,174.6 639.4,161 639.4,205.4 "
         class="st2" /><polygon
         style="fill:#f5e4d6"
         id="polygon170"
         points="639.4,161 639.4,116.5 668.9,102.9 668.9,147.4 "
         class="st3" /><polygon
         style="fill:#fbdabb"
         id="polygon172"
         points="639.4,205.4 639.4,161 668.9,147.4 668.9,191.8 "
         class="st4" /><polygon
         style="fill:#eeceb6"
         id="polygon174"
         points="551,290.7 551,246.2 580.4,232.6 580.4,277.1 "
         class="st1" /><polygon
         style="fill:#fdebd9"
         id="polygon176"
         points="551,335.1 551,290.7 580.4,277.1 580.4,321.5 "
         class="st2" /><polygon
         style="fill:#63ccee"
         id="polygon178"
         points="580.4,277.1 580.4,232.6 609.9,219 609.9,263.5 "
         class="st5" /><polygon
         style="fill:#4fc4ca"
         id="polygon180"
         points="580.4,321.5 580.4,277.1 609.9,263.5 609.9,307.9 "
         class="st13" /><polygon
         style="fill:#2ab8ea"
         id="polygon182"
         points="609.9,263.5 609.9,219 639.4,205.4 639.4,249.9 "
         class="st14" /><polygon
         style="fill:#fdebd9"
         id="polygon184"
         points="609.9,307.9 609.9,263.5 639.4,249.9 639.4,294.3 "
         class="st2" /><polygon
         style="fill:#63ccee"
         id="polygon186"
         points="639.4,249.9 639.4,205.4 668.9,191.8 668.9,236.3 "
         class="st5" /><polygon
         style="fill:#fbdabb"
         id="polygon188"
         points="639.4,294.3 639.4,249.9 668.9,236.3 668.9,280.7 "
         class="st4" /><polygon
         style="fill:#eeceb6"
         id="polygon190"
         points="551,379.6 551,335.1 580.4,321.5 580.4,366 "
         class="st1" /><polygon
         style="fill:#fdebd9"
         id="polygon192"
         points="551,424 551,379.6 580.4,366 580.4,410.5 "
         class="st2" /><polygon
         style="fill:#2ab8ea"
         id="polygon194"
         points="580.4,366 580.4,321.5 609.9,307.9 609.9,352.4 "
         class="st14" /><polygon
         style="fill:#4fc4ca"
         id="polygon196"
         points="580.4,410.5 580.4,366 609.9,352.4 609.9,396.9 "
         class="st13" /><polygon
         style="fill:#eeceb6"
         id="polygon198"
         points="609.9,352.4 609.9,307.9 639.4,294.3 639.4,338.8 "
         class="st1" /><polygon
         style="fill:#47b7b6"
         id="polygon200"
         points="609.9,396.9 609.9,352.4 639.4,338.8 639.4,383.3 "
         class="st15" /><polygon
         style="fill:#f5e4d6"
         id="polygon202"
         points="639.4,338.8 639.4,294.3 668.9,280.7 668.9,325.2 "
         class="st3" /><polygon
         style="fill:#4fc4ca"
         id="polygon204"
         points="639.4,383.3 639.4,338.8 668.9,325.2 668.9,369.7 "
         class="st13" /><polygon
         style="fill:#eeceb6"
         id="polygon206"
         points="551,468.5 551,424 580.4,410.5 580.4,454.9 "
         class="st1" /><polygon
         style="fill:#fdebd9"
         id="polygon208"
         points="551,513 551,468.5 580.4,454.9 580.4,499.4 "
         class="st2" /><polygon
         style="fill:#f5e4d6"
         id="polygon210"
         points="580.4,454.9 580.4,410.5 609.9,396.9 609.9,441.3 "
         class="st3" /><polygon
         style="fill:#fbdabb"
         id="polygon212"
         points="580.4,499.4 580.4,454.9 609.9,441.3 609.9,485.8 "
         class="st4" /><polygon
         style="fill:#eeceb6"
         id="polygon214"
         points="609.9,441.3 609.9,396.9 639.4,383.3 639.4,427.7 "
         class="st1" /><polygon
         style="fill:#fdebd9"
         id="polygon216"
         points="609.9,485.8 609.9,441.3 639.4,427.7 639.4,472.2 "
         class="st2" /><polygon
         style="fill:#f5e4d6"
         id="polygon218"
         points="639.4,427.7 639.4,383.3 668.9,369.7 668.9,414.1 "
         class="st3" /><polygon
         style="fill:#fbdabb"
         id="polygon220"
         points="639.4,472.2 639.4,427.7 668.9,414.1 668.9,458.6 "
         class="st4" /></g><g
       id="g280"><polygon
         style="fill:#e8ba98"
         id="polygon224"
         points="679.3,118.3 679.3,73.9 708.8,87.5 708.8,131.9 "
         class="st6" /><polygon
         style="fill:#f4aa69"
         id="polygon226"
         points="668.9,191.8 668.9,147.4 698.4,161 698.4,205.4 "
         class="st7" /><polygon
         style="fill:#00b1bb"
         id="polygon228"
         points="713.1,188.1 713.1,143.7 742.6,157.3 742.6,201.7 "
         class="st12" /><polygon
         style="fill:#e8ba98"
         id="polygon230"
         points="746.4,102.9 746.4,58.4 775.9,72 775.9,116.5 "
         class="st6" /><polygon
         style="fill:#f4aa69"
         id="polygon232"
         points="767.9,248 767.9,203.6 797.4,217.2 797.4,261.6 "
         class="st7" /><polygon
         style="fill:#db9364"
         id="polygon234"
         points="805.5,147.4 805.5,102.9 835,116.5 835,161 "
         class="st8" /><polygon
         style="fill:#008ed0"
         id="polygon236"
         points="668.9,236.3 668.9,191.8 698.4,205.4 698.4,249.9 "
         class="st11" /><polygon
         style="fill:#f4aa69"
         id="polygon238"
         points="668.9,280.7 668.9,236.3 698.4,249.9 698.4,294.3 "
         class="st7" /><polygon
         style="fill:#db9364"
         id="polygon240"
         points="698.4,249.9 698.4,205.4 727.9,219 727.9,263.5 "
         class="st8" /><polygon
         style="fill:#f6b982"
         id="polygon242"
         points="698.4,294.3 698.4,249.9 727.9,263.5 727.9,307.9 "
         class="st9" /><polygon
         style="fill:#f4aa69"
         id="polygon244"
         points="727.9,307.9 727.9,263.5 757.4,277.1 757.4,321.5 "
         class="st7" /><polygon
         style="fill:#db9364"
         id="polygon246"
         points="810.3,316.2 810.3,271.7 839.8,285.3 839.8,329.8 "
         class="st8" /><polygon
         style="fill:#e8ba98"
         id="polygon248"
         points="668.9,325.2 668.9,280.7 698.4,294.3 698.4,338.8 "
         class="st6" /><polygon
         style="fill:#00b1bb"
         id="polygon250"
         points="668.9,369.7 668.9,325.2 698.4,338.8 698.4,383.3 "
         class="st12" /><polygon
         style="fill:#db9364"
         id="polygon252"
         points="698.4,338.8 698.4,294.3 727.9,307.9 727.9,352.4 "
         class="st8" /><polygon
         style="fill:#f6b982"
         id="polygon254"
         points="698.4,383.3 698.4,338.8 727.9,352.4 727.9,396.9 "
         class="st9" /><polygon
         style="fill:#e8ba98"
         id="polygon256"
         points="727.9,352.4 727.9,307.9 757.4,321.5 757.4,366 "
         class="st6" /><polygon
         style="fill:#f4aa69"
         id="polygon258"
         points="727.9,396.9 727.9,352.4 757.4,366 757.4,410.5 "
         class="st7" /><polygon
         style="fill:#db9364"
         id="polygon260"
         points="757.4,366 757.4,321.5 786.8,335.1 786.8,379.6 "
         class="st8" /><polygon
         style="fill:#f6b982"
         id="polygon262"
         points="757.4,410.5 757.4,366 786.8,379.6 786.8,424 "
         class="st9" /><polygon
         style="fill:#e8ba98"
         id="polygon264"
         points="668.9,414.1 668.9,369.7 698.4,383.3 698.4,427.7 "
         class="st6" /><polygon
         style="fill:#f4aa69"
         id="polygon266"
         points="668.9,458.6 668.9,414.1 698.4,427.7 698.4,472.2 "
         class="st7" /><polygon
         style="fill:#db9364"
         id="polygon268"
         points="698.4,427.7 698.4,383.3 727.9,396.9 727.9,441.3 "
         class="st8" /><polygon
         style="fill:#f6b982"
         id="polygon270"
         points="698.4,472.2 698.4,427.7 727.9,441.3 727.9,485.8 "
         class="st9" /><polygon
         style="fill:#e8ba98"
         id="polygon272"
         points="727.9,441.3 727.9,396.9 757.4,410.5 757.4,454.9 "
         class="st6" /><polygon
         style="fill:#f4aa69"
         id="polygon274"
         points="727.9,485.8 727.9,441.3 757.4,454.9 757.4,499.4 "
         class="st7" /><polygon
         style="fill:#db9364"
         id="polygon276"
         points="757.4,454.9 757.4,410.5 786.8,424 786.8,468.5 "
         class="st8" /><polygon
         style="fill:#f6b982"
         id="polygon278"
         points="757.4,499.4 757.4,454.9 786.8,468.5 786.8,513 "
         class="st9" /></g></g><g
     aria-label="A light-weight, versatile XYZ tile server"
     style="font-style:normal;font-variant:normal;font-weight:normal;font-stretch:normal;font-size:15.68643475px;line-height:1.25;font-family:Lato;-inkscape-font-specification:Lato;letter-spacing:0px;word-spacing:0px;fill:#666666;fill-opacity:1;stroke:none;stroke-width:0.98040217"
     id="text4929"
     transform="translate(62.29498,-462.23599)"><g
       id="g1021"
       transform="translate(3.2448377,590.56047)"><path
         inkscape:connector-curvature="0"
         id="path4964"
         style="font-size:47.05930328px;fill:#666666;stroke-width:0.98040217"
         d="m 586.07069,257.91069 -5.29417,-13.71778 q -0.23529,-0.61178 -0.49412,-1.41178 -0.25883,-0.82354 -0.49412,-1.7412 -0.49412,1.9059 -1.01178,3.1765 l -5.29417,13.69426 z m 9.50598,12.51778 h -3.52944 q -0.61177,0 -0.98825,-0.30589 -0.37647,-0.30588 -0.56471,-0.77648 l -3.15297,-8.14126 h -15.12957 l -3.15297,8.14126 q -0.14118,0.42354 -0.54119,0.75295 -0.4,0.32942 -0.98824,0.32942 h -3.52945 l 13.48249,-33.71799 h 4.61181 z" /><path
         inkscape:connector-curvature="0"
         id="path4966"
         style="font-size:47.05930328px;fill:#666666;stroke-width:0.98040217"
         d="m 613.8776,235.76929 v 34.65918 h -4.18828 v -34.65918 z" /><path
         inkscape:connector-curvature="0"
         id="path4968"
         style="font-size:47.05930328px;fill:#666666;stroke-width:0.98040217"
         d="m 625.09315,246.59293 v 23.83554 h -4.18827 v -23.83554 z m 0.89413,-7.48243 q 0,0.61177 -0.25883,1.15295 -0.23529,0.51766 -0.65883,0.94119 -0.4,0.4 -0.96471,0.6353 -0.54118,0.2353 -1.15295,0.2353 -0.61178,0 -1.15296,-0.2353 -0.51765,-0.2353 -0.91765,-0.6353 -0.40001,-0.42353 -0.6353,-0.94119 -0.2353,-0.54118 -0.2353,-1.15295 0,-0.61177 0.2353,-1.15295 0.23529,-0.56471 0.6353,-0.96472 0.4,-0.42353 0.91765,-0.65883 0.54118,-0.23529 1.15296,-0.23529 0.61177,0 1.15295,0.23529 0.56471,0.2353 0.96471,0.65883 0.42354,0.40001 0.65883,0.96472 0.25883,0.54118 0.25883,1.15295 z" /><path
         inkscape:connector-curvature="0"
         id="path4970"
         style="font-size:47.05930328px;fill:#666666;stroke-width:0.98040217"
         d="m 640.28081,258.78129 q 1.2706,0 2.23531,-0.35295 0.96472,-0.35294 1.62355,-0.98824 0.65883,-0.6353 0.98824,-1.5059 0.32942,-0.89413 0.32942,-1.95296 0,-2.18826 -1.34119,-3.48239 -1.31766,-1.29413 -3.83533,-1.29413 -2.54121,0 -3.8824,1.29413 -1.31766,1.29413 -1.31766,3.48239 0,1.05883 0.32942,1.95296 0.35294,0.8706 1.01177,1.5059 0.65883,0.6353 1.62355,0.98824 0.96471,0.35295 2.23532,0.35295 z m 7.55301,12.94131 q 0,-0.8706 -0.49412,-1.41178 -0.49412,-0.54118 -1.34119,-0.84707 -0.82354,-0.30588 -1.92943,-0.42353 -1.10589,-0.14118 -2.35297,-0.21177 -1.22354,-0.0706 -2.49414,-0.14118 -1.2706,-0.0706 -2.44708,-0.23529 -1.31766,0.61177 -2.16473,1.55295 -0.82354,0.91766 -0.82354,2.16473 0,0.80001 0.40001,1.48237 0.42353,0.70589 1.2706,1.20001 0.84706,0.51765 2.11767,0.80001 1.29413,0.30588 3.03532,0.30588 1.69414,0 3.03533,-0.30588 1.34119,-0.30589 2.25884,-0.8706 0.94119,-0.56471 1.43531,-1.34119 0.49412,-0.77648 0.49412,-1.71766 z m 4.25887,-24.18848 v 1.55295 q 0,0.77648 -0.98824,0.98825 l -2.70591,0.35294 q 0.8,1.55296 0.8,3.43533 0,1.7412 -0.68236,3.17651 -0.65883,1.41177 -1.83531,2.42355 -1.17648,1.01177 -2.82356,1.55296 -1.64707,0.54118 -3.5765,0.54118 -1.67061,0 -3.15298,-0.40001 -0.75295,0.4706 -1.15295,1.01178 -0.4,0.51765 -0.4,1.05883 0,0.84707 0.68236,1.29413 0.70588,0.42354 1.83531,0.61178 1.12942,0.18823 2.56473,0.23529 1.45884,0.0471 2.96474,0.16471 1.52942,0.0941 2.96473,0.35294 1.45884,0.25883 2.58826,0.84707 1.12943,0.58824 1.81179,1.62355 0.70589,1.0353 0.70589,2.68238 0,1.52943 -0.77648,2.96473 -0.75295,1.43531 -2.18826,2.54121 -1.43531,1.12942 -3.52945,1.78825 -2.07061,0.68236 -4.6824,0.68236 -2.61179,0 -4.56475,-0.51765 -1.95296,-0.51766 -3.24709,-1.38825 -1.29413,-0.8706 -1.95296,-2.02355 -0.6353,-1.12943 -0.6353,-2.3765 0,-1.76472 1.10589,-2.98826 1.10589,-1.22354 3.03532,-1.95296 -1.05883,-0.4706 -1.69413,-1.24708 -0.61177,-0.8 -0.61177,-2.14119 0,-0.51766 0.18824,-1.05884 0.18823,-0.56471 0.56471,-1.10589 0.4,-0.56471 0.96471,-1.05884 0.56472,-0.49412 1.31766,-0.87059 -1.76472,-0.98825 -2.75297,-2.61179 -0.98824,-1.64708 -0.98824,-3.81181 0,-1.74119 0.65883,-3.15297 0.68236,-1.43531 1.88237,-2.42356 1.20001,-1.01177 2.84709,-1.55295 1.67061,-0.54118 3.6471,-0.54118 1.55295,0 2.89414,0.35294 1.34119,0.32942 2.44709,0.98825 z" /><path
         inkscape:connector-curvature="0"
         id="path4972"
         style="font-size:47.05930328px;fill:#666666;stroke-width:0.98040217"
         d="m 660.63542,249.76943 q 1.52943,-1.62354 3.38827,-2.58826 1.85884,-0.96471 4.2824,-0.96471 1.95296,0 3.43533,0.65883 1.5059,0.6353 2.49414,1.83531 1.01178,1.17648 1.52943,2.84709 0.51765,1.6706 0.51765,3.69415 v 15.17663 h -4.21181 v -15.17663 q 0,-2.70591 -1.24707,-4.18828 -1.22354,-1.50589 -3.74121,-1.50589 -1.85885,0 -3.48239,0.89412 -1.60002,0.89413 -2.96474,2.42356 v 17.55312 h -4.2118 v -34.65918 h 4.2118 z" /><path
         inkscape:connector-curvature="0"
         id="path4974"
         style="font-size:47.05930328px;fill:#666666;stroke-width:0.98040217"
         d="m 689.66072,270.80494 q -2.82355,0 -4.35298,-1.57649 -1.5059,-1.57648 -1.5059,-4.54122 v -14.58838 h -2.87062 q -0.37647,0 -0.6353,-0.21177 -0.25882,-0.2353 -0.25882,-0.70589 v -1.6706 l 3.90592,-0.49413 0.96471,-7.36478 q 0.0706,-0.35294 0.30589,-0.56471 0.25883,-0.2353 0.65883,-0.2353 h 2.11767 v 8.21185 h 6.89419 v 3.03533 h -6.89419 v 14.30603 q 0,1.50589 0.72942,2.23531 0.72942,0.72942 1.88237,0.72942 0.65883,0 1.12942,-0.16471 0.49413,-0.18823 0.84707,-0.4 0.35295,-0.21177 0.58824,-0.37647 0.25883,-0.18824 0.44707,-0.18824 0.32941,0 0.58824,0.4 l 1.22354,2.00002 q -1.08236,1.01178 -2.61179,1.60002 -1.52943,0.56471 -3.15298,0.56471 z" /><path
         inkscape:connector-curvature="0"
         id="path4976"
         style="font-size:47.05930328px;fill:#666666;stroke-width:0.98040217"
         d="m 698.87846,254.54595 h 11.62365 v 3.55298 h -11.62365 z" /><path
         inkscape:connector-curvature="0"
         id="path4978"
         style="font-size:47.05930328px;fill:#666666;stroke-width:0.98040217"
         d="m 749.58927,246.59293 -7.71773,23.83554 h -3.31768 q -0.61177,0 -0.84706,-0.80001 l -5.27065,-16.16487 q -0.18823,-0.54118 -0.30588,-1.08237 -0.11765,-0.56471 -0.2353,-1.10589 -0.11765,0.54118 -0.2353,1.10589 -0.11764,0.54119 -0.30588,1.1059 l -5.36476,16.14134 q -0.21177,0.80001 -0.94119,0.80001 h -3.15297 l -7.71773,-23.83554 h 3.29416 q 0.49412,0 0.82353,0.25883 0.35295,0.25882 0.4706,0.61177 l 4.56475,15.34133 q 0.4,1.69413 0.6353,3.20003 0.21177,-0.77648 0.42353,-1.57648 0.2353,-0.80001 0.49413,-1.62355 l 5.03534,-15.43545 q 0.11765,-0.35295 0.4,-0.58824 0.30589,-0.2353 0.72942,-0.2353 h 1.83532 q 0.47059,0 0.77648,0.2353 0.30588,0.23529 0.42353,0.58824 l 4.9177,15.43545 q 0.25882,0.82354 0.47059,1.62355 0.21177,0.8 0.4,1.57648 0.11765,-0.77648 0.28236,-1.55295 0.18824,-0.80001 0.4,-1.64708 l 4.65887,-15.34133 q 0.11765,-0.37648 0.44707,-0.61177 0.32941,-0.25883 0.77648,-0.25883 z" /><path
         inkscape:connector-curvature="0"
         id="path4980"
         style="font-size:47.05930328px;fill:#666666;stroke-width:0.98040217"
         d="m 769.25272,255.91067 q 0,-1.45884 -0.42354,-2.65885 -0.4,-1.22354 -1.20001,-2.09414 -0.77648,-0.89412 -1.9059,-1.36472 -1.12942,-0.49412 -2.56473,-0.49412 -3.0118,0 -4.77652,1.76472 -1.74119,1.7412 -2.16473,4.84711 z m 3.38827,11.17659 q -0.77648,0.94118 -1.85884,1.64707 -1.08237,0.68236 -2.32944,1.12943 -1.22354,0.44706 -2.5412,0.65883 -1.31766,0.23529 -2.61179,0.23529 -2.47062,0 -4.56476,-0.82354 -2.07061,-0.84706 -3.60003,-2.44708 -1.5059,-1.62355 -2.35297,-4.00004 -0.84707,-2.3765 -0.84707,-5.45888 0,-2.49414 0.75295,-4.65887 0.77648,-2.16473 2.21179,-3.74122 1.43531,-1.60001 3.50592,-2.49414 2.07061,-0.91765 4.65887,-0.91765 2.1412,0 3.95298,0.72941 1.83531,0.70589 3.15297,2.07061 1.34119,1.34119 2.09414,3.34121 0.75295,1.9765 0.75295,4.5177 0,0.98824 -0.21176,1.31766 -0.21177,0.32941 -0.80001,0.32941 h -15.92958 q 0.0706,2.25885 0.61177,3.92945 0.56472,1.67061 1.55296,2.80003 0.98825,1.1059 2.35297,1.67061 1.36472,0.54118 3.05885,0.54118 1.57649,0 2.70591,-0.35294 1.15295,-0.37648 1.97649,-0.80001 0.82354,-0.42354 1.36472,-0.77648 0.56471,-0.37648 0.96472,-0.37648 0.51765,0 0.80001,0.40001 z" /><path
         inkscape:connector-curvature="0"
         id="path4982"
         style="font-size:47.05930328px;fill:#666666;stroke-width:0.98040217"
         d="m 782.53961,246.59293 v 23.83554 h -4.18828 v -23.83554 z m 0.89413,-7.48243 q 0,0.61177 -0.25883,1.15295 -0.2353,0.51766 -0.65883,0.94119 -0.4,0.4 -0.96471,0.6353 -0.54119,0.2353 -1.15296,0.2353 -0.61177,0 -1.15295,-0.2353 -0.51765,-0.2353 -0.91766,-0.6353 -0.4,-0.42353 -0.6353,-0.94119 -0.23529,-0.54118 -0.23529,-1.15295 0,-0.61177 0.23529,-1.15295 0.2353,-0.56471 0.6353,-0.96472 0.40001,-0.42353 0.91766,-0.65883 0.54118,-0.23529 1.15295,-0.23529 0.61177,0 1.15296,0.23529 0.56471,0.2353 0.96471,0.65883 0.42353,0.40001 0.65883,0.96472 0.25883,0.54118 0.25883,1.15295 z" /><path
         inkscape:connector-curvature="0"
         id="path4984"
         style="font-size:47.05930328px;fill:#666666;stroke-width:0.98040217"
         d="m 797.72727,258.78129 q 1.2706,0 2.23532,-0.35295 0.96471,-0.35294 1.62354,-0.98824 0.65883,-0.6353 0.98825,-1.5059 0.32941,-0.89413 0.32941,-1.95296 0,-2.18826 -1.34119,-3.48239 -1.31766,-1.29413 -3.83533,-1.29413 -2.5412,0 -3.88239,1.29413 -1.31766,1.29413 -1.31766,3.48239 0,1.05883 0.32941,1.95296 0.35295,0.8706 1.01178,1.5059 0.65883,0.6353 1.62354,0.98824 0.96472,0.35295 2.23532,0.35295 z m 7.55302,12.94131 q 0,-0.8706 -0.49412,-1.41178 -0.49413,-0.54118 -1.34119,-0.84707 -0.82354,-0.30588 -1.92944,-0.42353 -1.10589,-0.14118 -2.35296,-0.21177 -1.22354,-0.0706 -2.49414,-0.14118 -1.27061,-0.0706 -2.44709,-0.23529 -1.31766,0.61177 -2.16473,1.55295 -0.82353,0.91766 -0.82353,2.16473 0,0.80001 0.4,1.48237 0.42353,0.70589 1.2706,1.20001 0.84707,0.51765 2.11767,0.80001 1.29413,0.30588 3.03533,0.30588 1.69413,0 3.03532,-0.30588 1.34119,-0.30589 2.25885,-0.8706 0.94118,-0.56471 1.43531,-1.34119 0.49412,-0.77648 0.49412,-1.71766 z m 4.25887,-24.18848 v 1.55295 q 0,0.77648 -0.98825,0.98825 l -2.70591,0.35294 q 0.80001,1.55296 0.80001,3.43533 0,1.7412 -0.68236,3.17651 -0.65883,1.41177 -1.83531,2.42355 -1.17649,1.01177 -2.82356,1.55296 -1.64708,0.54118 -3.57651,0.54118 -1.6706,0 -3.15297,-0.40001 -0.75295,0.4706 -1.15296,1.01178 -0.4,0.51765 -0.4,1.05883 0,0.84707 0.68236,1.29413 0.70589,0.42354 1.83531,0.61178 1.12943,0.18823 2.56473,0.23529 1.45884,0.0471 2.96474,0.16471 1.52943,0.0941 2.96474,0.35294 1.45884,0.25883 2.58826,0.84707 1.12942,0.58824 1.81178,1.62355 0.70589,1.0353 0.70589,2.68238 0,1.52943 -0.77648,2.96473 -0.75295,1.43531 -2.18825,2.54121 -1.43531,1.12942 -3.52945,1.78825 -2.07061,0.68236 -4.6824,0.68236 -2.61179,0 -4.56476,-0.51765 -1.95296,-0.51766 -3.24709,-1.38825 -1.29413,-0.8706 -1.95296,-2.02355 -0.6353,-1.12943 -0.6353,-2.3765 0,-1.76472 1.10589,-2.98826 1.1059,-1.22354 3.03533,-1.95296 -1.05883,-0.4706 -1.69414,-1.24708 -0.61177,-0.8 -0.61177,-2.14119 0,-0.51766 0.18824,-1.05884 0.18824,-0.56471 0.56471,-1.10589 0.40001,-0.56471 0.96472,-1.05884 0.56471,-0.49412 1.31766,-0.87059 -1.76473,-0.98825 -2.75297,-2.61179 -0.98825,-1.64708 -0.98825,-3.81181 0,-1.74119 0.65883,-3.15297 0.68236,-1.43531 1.88238,-2.42356 1.20001,-1.01177 2.84708,-1.55295 1.67061,-0.54118 3.6471,-0.54118 1.55296,0 2.89415,0.35294 1.34119,0.32942 2.44708,0.98825 z" /><path
         inkscape:connector-curvature="0"
         id="path4986"
         style="font-size:47.05930328px;fill:#666666;stroke-width:0.98040217"
         d="m 818.08189,249.76943 q 1.52942,-1.62354 3.38827,-2.58826 1.85884,-0.96471 4.28239,-0.96471 1.95296,0 3.43533,0.65883 1.5059,0.6353 2.49415,1.83531 1.01177,1.17648 1.52942,2.84709 0.51766,1.6706 0.51766,3.69415 v 15.17663 h -4.21181 v -15.17663 q 0,-2.70591 -1.24707,-4.18828 -1.22355,-1.50589 -3.74122,-1.50589 -1.85884,0 -3.48239,0.89412 -1.60001,0.89413 -2.96473,2.42356 v 17.55312 h -4.21181 v -34.65918 h 4.21181 z" /><path
         inkscape:connector-curvature="0"
         id="path4988"
         style="font-size:47.05930328px;fill:#666666;stroke-width:0.98040217"
         d="m 847.10717,270.80494 q -2.82355,0 -4.35298,-1.57649 -1.5059,-1.57648 -1.5059,-4.54122 v -14.58838 h -2.87062 q -0.37647,0 -0.6353,-0.21177 -0.25882,-0.2353 -0.25882,-0.70589 v -1.6706 l 3.90592,-0.49413 0.96471,-7.36478 q 0.0706,-0.35294 0.30589,-0.56471 0.25883,-0.2353 0.65883,-0.2353 h 2.11767 v 8.21185 h 6.89419 v 3.03533 h -6.89419 v 14.30603 q 0,1.50589 0.72942,2.23531 0.72942,0.72942 1.88237,0.72942 0.65883,0 1.12942,-0.16471 0.49413,-0.18823 0.84707,-0.4 0.35295,-0.21177 0.58824,-0.37647 0.25883,-0.18824 0.44707,-0.18824 0.32941,0 0.58824,0.4 l 1.22354,2.00002 q -1.08237,1.01178 -2.61179,1.60002 -1.52943,0.56471 -3.15298,0.56471 z" /><path
         inkscape:connector-curvature="0"
         id="path4990"
         style="font-size:47.05930328px;fill:#666666;stroke-width:0.98040217"
         d="m 856.44258,276.12264 q -0.18823,-0.16471 -0.25882,-0.30588 -0.0706,-0.14118 -0.0706,-0.35295 0,-0.16471 0.0941,-0.32941 0.11764,-0.16471 0.25882,-0.30589 0.2353,-0.25882 0.58824,-0.68236 0.37648,-0.42353 0.75295,-1.01177 0.37648,-0.56471 0.68236,-1.2706 0.32942,-0.68236 0.4706,-1.45884 -0.0706,0.0235 -0.16471,0.0235 -0.0706,0 -0.14118,0 -1.22354,0 -2.00002,-0.80001 -0.75295,-0.82354 -0.75295,-2.09414 0,-1.10589 0.75295,-1.88237 0.77648,-0.77648 2.04708,-0.77648 0.70589,0 1.24707,0.25883 0.54118,0.25882 0.89413,0.72941 0.37647,0.44707 0.56471,1.05884 0.18824,0.58824 0.18824,1.29413 0,1.05883 -0.30589,2.21179 -0.28235,1.12942 -0.8706,2.23531 -0.56471,1.12943 -1.38825,2.18826 -0.82353,1.05884 -1.88237,1.95296 z" /><path
         inkscape:connector-curvature="0"
         id="path4992"
         style="font-size:47.05930328px;fill:#666666;stroke-width:0.98040217"
         d="m 898.72463,246.59293 -9.71774,23.83554 h -3.76475 l -9.71774,-23.83554 h 3.4118 q 0.51765,0 0.84706,0.25883 0.32942,0.25882 0.44707,0.61177 l 6.04712,15.34133 q 0.28235,0.8706 0.49412,1.69413 0.21177,0.82354 0.4,1.64708 0.18824,-0.82354 0.40001,-1.64708 0.21177,-0.82353 0.51765,-1.69413 l 6.11771,-15.34133 q 0.14118,-0.37648 0.47059,-0.61177 0.32942,-0.25883 0.77648,-0.25883 z" /><path
         inkscape:connector-curvature="0"
         id="path4994"
         style="font-size:47.05930328px;fill:#666666;stroke-width:0.98040217"
         d="m 917.87555,255.91067 q 0,-1.45884 -0.42353,-2.65885 -0.40001,-1.22354 -1.20001,-2.09414 -0.77648,-0.89412 -1.90591,-1.36472 -1.12942,-0.49412 -2.56473,-0.49412 -3.01179,0 -4.77652,1.76472 -1.74119,1.7412 -2.16473,4.84711 z m 3.38827,11.17659 q -0.77648,0.94118 -1.85884,1.64707 -1.08237,0.68236 -2.32944,1.12943 -1.22354,0.44706 -2.5412,0.65883 -1.31766,0.23529 -2.61179,0.23529 -2.47061,0 -4.56475,-0.82354 -2.07061,-0.84706 -3.60004,-2.44708 -1.5059,-1.62355 -2.35296,-4.00004 -0.84707,-2.3765 -0.84707,-5.45888 0,-2.49414 0.75295,-4.65887 0.77648,-2.16473 2.21178,-3.74122 1.43531,-1.60001 3.50592,-2.49414 2.07061,-0.91765 4.65887,-0.91765 2.1412,0 3.95298,0.72941 1.83532,0.70589 3.15298,2.07061 1.34119,1.34119 2.09414,3.34121 0.75295,1.9765 0.75295,4.5177 0,0.98824 -0.21177,1.31766 -0.21177,0.32941 -0.80001,0.32941 h -15.92957 q 0.0706,2.25885 0.61177,3.92945 0.56471,1.67061 1.55295,2.80003 0.98825,1.1059 2.35297,1.67061 1.36472,0.54118 3.05885,0.54118 1.57649,0 2.70591,-0.35294 1.15296,-0.37648 1.9765,-0.80001 0.82353,-0.42354 1.36471,-0.77648 0.56472,-0.37648 0.96472,-0.37648 0.51765,0 0.80001,0.40001 z" /><path
         inkscape:connector-curvature="0"
         id="path4996"
         style="font-size:47.05930328px;fill:#666666;stroke-width:0.98040217"
         d="m 930.7154,251.36945 q 1.12942,-2.44708 2.77649,-3.8118 1.64708,-1.38825 4.02357,-1.38825 0.75295,0 1.43531,0.1647 0.70589,0.16471 1.24708,0.51766 l -0.30589,3.12944 q -0.14118,0.58824 -0.70589,0.58824 -0.32941,0 -0.96472,-0.14118 -0.6353,-0.14118 -1.4353,-0.14118 -1.12943,0 -2.02355,0.32942 -0.8706,0.32942 -1.57649,0.98825 -0.68236,0.6353 -1.24707,1.60001 -0.54118,0.94119 -0.98825,2.16473 v 15.05898 h -4.21181 v -23.83554 h 2.40003 q 0.68236,0 0.94119,0.25883 0.25882,0.25882 0.35294,0.89412 z" /><path
         inkscape:connector-curvature="0"
         id="path4998"
         style="font-size:47.05930328px;fill:#666666;stroke-width:0.98040217"
         d="m 957.53331,250.52238 q -0.28236,0.51765 -0.8706,0.51765 -0.35295,0 -0.80001,-0.25882 -0.44706,-0.25883 -1.10589,-0.56471 -0.6353,-0.32942 -1.52943,-0.58825 -0.89413,-0.28235 -2.11767,-0.28235 -1.05883,0 -1.9059,0.28235 -0.84707,0.25883 -1.45884,0.72942 -0.58824,0.4706 -0.91766,1.1059 -0.30588,0.61177 -0.30588,1.34119 0,0.91765 0.51765,1.52943 0.54118,0.61177 1.41178,1.05883 0.8706,0.44706 1.97649,0.80001 1.10589,0.32941 2.25885,0.72942 1.17648,0.37647 2.28237,0.84706 1.1059,0.4706 1.97649,1.17649 0.8706,0.70589 1.38825,1.74119 0.54119,1.01178 0.54119,2.44708 0,1.64708 -0.58825,3.05886 -0.58824,1.38825 -1.74119,2.42355 -1.15295,1.01178 -2.82356,1.60002 -1.6706,0.58824 -3.85886,0.58824 -2.49414,0 -4.51769,-0.80001 -2.02355,-0.82353 -3.43533,-2.09414 l 0.98824,-1.60001 q 0.18824,-0.30589 0.44707,-0.4706 0.25882,-0.1647 0.65883,-0.1647 0.42353,0 0.89412,0.32941 0.4706,0.32942 1.12943,0.72942 0.68236,0.40001 1.64707,0.72942 0.96472,0.32942 2.40003,0.32942 1.22354,0 2.14119,-0.30589 0.91766,-0.32941 1.52943,-0.8706 0.61177,-0.54118 0.89413,-1.24707 0.30588,-0.70589 0.30588,-1.5059 0,-0.98824 -0.54118,-1.62354 -0.51765,-0.65883 -1.38825,-1.1059 -0.87059,-0.47059 -2.00002,-0.8 -1.10589,-0.35295 -2.28237,-0.72942 -1.15296,-0.37648 -2.28238,-0.84707 -1.10589,-0.49412 -1.97649,-1.22354 -0.8706,-0.72942 -1.41178,-1.78826 -0.51765,-1.08236 -0.51765,-2.61179 0,-1.36472 0.56471,-2.61179 0.56471,-1.2706 1.64707,-2.21179 1.08237,-0.96471 2.65886,-1.52942 1.57648,-0.56471 3.60003,-0.56471 2.35297,0 4.21181,0.75294 1.88237,0.72942 3.24709,2.02355 z" /><path
         inkscape:connector-curvature="0"
         id="path5000"
         style="font-size:47.05930328px;fill:#666666;stroke-width:0.98040217"
         d="m 976.97322,259.69895 q -2.89415,0.0941 -4.94122,0.47059 -2.02355,0.35294 -3.31769,0.94118 -1.2706,0.58825 -1.85884,1.38825 -0.56471,0.80001 -0.56471,1.78826 0,0.94118 0.30589,1.62354 0.30588,0.68236 0.82353,1.12943 0.54119,0.42353 1.24708,0.6353 0.72941,0.18823 1.55295,0.18823 1.1059,0 2.02355,-0.21176 0.91766,-0.2353 1.71767,-0.65883 0.82353,-0.42354 1.55295,-1.01178 0.75295,-0.58824 1.45884,-1.34119 z m -13.52955,-9.74128 q 1.97649,-1.9059 4.25887,-2.84709 2.28238,-0.94118 5.05887,-0.94118 2.00002,0 3.55298,0.65883 1.55296,0.65883 2.61179,1.83531 1.05884,1.17648 1.60002,2.84709 0.54118,1.6706 0.54118,3.67062 v 15.24722 h -1.85884 q -0.61177,0 -0.94119,-0.18824 -0.32941,-0.21177 -0.51765,-0.80001 l -0.47059,-2.25885 q -0.94119,0.8706 -1.83532,1.55296 -0.89412,0.65883 -1.88237,1.12943 -0.98824,0.44706 -2.11767,0.68236 -1.10589,0.25882 -2.47061,0.25882 -1.38825,0 -2.61179,-0.37647 -1.22354,-0.40001 -2.1412,-1.17649 -0.89413,-0.77647 -1.43531,-1.95296 -0.51765,-1.20001 -0.51765,-2.82356 0,-1.41177 0.77648,-2.70591 0.77648,-1.31766 2.51767,-2.32943 1.7412,-1.01178 4.54122,-1.64708 2.80003,-0.65883 6.87066,-0.75294 v -1.85885 q 0,-2.7765 -1.20001,-4.18828 -1.20001,-1.4353 -3.50592,-1.4353 -1.55296,0 -2.61179,0.4 -1.0353,0.37647 -1.81178,0.8706 -0.75295,0.47059 -1.31766,0.87059 -0.54119,0.37648 -1.08237,0.37648 -0.42353,0 -0.72942,-0.21177 -0.30588,-0.23529 -0.51765,-0.56471 z" /><path
         inkscape:connector-curvature="0"
         id="path5002"
         style="font-size:47.05930328px;fill:#666666;stroke-width:0.98040217"
         d="m 1009.2434,270.42847 h -4.1883 v -20.32962 h -12.28247 v 14.30603 q 0,1.50589 0.72942,2.23531 0.72942,0.72942 1.88237,0.72942 0.65883,0 1.12942,-0.16471 0.49413,-0.18823 0.84707,-0.4 0.35294,-0.21177 0.58824,-0.37647 0.25883,-0.18824 0.44706,-0.18824 0.32942,0 0.58825,0.4 l 1.22354,2.00002 q -1.08237,1.01178 -2.61179,1.60002 -1.52943,0.56471 -3.15298,0.56471 -2.82355,0 -4.35298,-1.57649 -1.5059,-1.57648 -1.5059,-4.54122 v -14.58838 h -2.87062 q -0.37647,0 -0.6353,-0.21177 -0.25882,-0.2353 -0.25882,-0.70589 v -1.6706 l 3.90592,-0.51766 0.96471,-7.34125 q 0.0706,-0.35294 0.30589,-0.56471 0.25883,-0.2353 0.65883,-0.2353 h 2.11767 v 8.21185 h 16.47077 z m 1.0353,-31.48268 q 0,0.61177 -0.2588,1.15296 -0.2353,0.51765 -0.6589,0.91765 -0.4,0.40001 -0.9412,0.6353 -0.5411,0.2353 -1.1529,0.2353 -0.6118,0 -1.153,-0.2353 -0.5176,-0.23529 -0.9176,-0.6353 -0.4,-0.4 -0.6353,-0.91765 -0.2353,-0.54119 -0.2353,-1.15296 0,-0.61177 0.2353,-1.15295 0.2353,-0.56471 0.6353,-0.96472 0.4,-0.42353 0.9176,-0.65883 0.5412,-0.23529 1.153,-0.23529 0.6118,0 1.1529,0.23529 0.5412,0.2353 0.9412,0.65883 0.4236,0.40001 0.6589,0.96472 0.2588,0.54118 0.2588,1.15295 z" /><path
         inkscape:connector-curvature="0"
         id="path5004"
         style="font-size:47.05930328px;fill:#666666;stroke-width:0.98040217"
         d="m 1020.4075,235.76929 v 34.65918 h -4.1883 v -34.65918 z" /><path
         inkscape:connector-curvature="0"
         id="path5006"
         style="font-size:47.05930328px;fill:#666666;stroke-width:0.98040217"
         d="m 1043.1526,255.91067 q 0,-1.45884 -0.4236,-2.65885 -0.4,-1.22354 -1.2,-2.09414 -0.7765,-0.89412 -1.9059,-1.36472 -1.1294,-0.49412 -2.5647,-0.49412 -3.0118,0 -4.7765,1.76472 -1.7412,1.7412 -2.1648,4.84711 z m 3.3882,11.17659 q -0.7764,0.94118 -1.8588,1.64707 -1.0824,0.68236 -2.3294,1.12943 -1.2236,0.44706 -2.5413,0.65883 -1.3176,0.23529 -2.6117,0.23529 -2.4707,0 -4.5648,-0.82354 -2.0706,-0.84706 -3.6,-2.44708 -1.5059,-1.62355 -2.353,-4.00004 -0.8471,-2.3765 -0.8471,-5.45888 0,-2.49414 0.753,-4.65887 0.7765,-2.16473 2.2118,-3.74122 1.4353,-1.60001 3.5059,-2.49414 2.0706,-0.91765 4.6589,-0.91765 2.1412,0 3.9529,0.72941 1.8354,0.70589 3.153,2.07061 1.3412,1.34119 2.0942,3.34121 0.7529,1.9765 0.7529,4.5177 0,0.98824 -0.2118,1.31766 -0.2117,0.32941 -0.8,0.32941 h -15.9295 q 0.07,2.25885 0.6117,3.92945 0.5647,1.67061 1.553,2.80003 0.9882,1.1059 2.3529,1.67061 1.3648,0.54118 3.0589,0.54118 1.5765,0 2.7059,-0.35294 1.153,-0.37648 1.9765,-0.80001 0.8235,-0.42354 1.3647,-0.77648 0.5647,-0.37648 0.9647,-0.37648 0.5177,0 0.8,0.40001 z" /><path
         inkscape:connector-curvature="0"
         id="path5008"
         style="font-size:47.05930328px;fill:#666666;stroke-width:0.98040217"
         d="m 1090.7626,270.42847 h -4.5177 q -0.5176,0 -0.8235,-0.25883 -0.2824,-0.28236 -0.4706,-0.61177 l -9.0354,-14.16485 q -0.1882,0.56471 -0.4235,0.96472 l -8.8001,13.20013 q -0.2353,0.32941 -0.5177,0.61177 -0.2588,0.25883 -0.7294,0.25883 h -4.2353 l 11.6001,-17.31783 -11.1295,-16.40016 h 4.5412 q 0.4941,0 0.7294,0.1647 0.2353,0.16471 0.4235,0.4706 l 8.8001,13.50602 q 0.1647,-0.49413 0.4941,-1.08237 l 8.306,-12.32953 q 0.1882,-0.32942 0.4471,-0.51766 0.2588,-0.21176 0.6117,-0.21176 h 4.353 l -11.1766,16.1884 z" /><path
         inkscape:connector-curvature="0"
         id="path5010"
         style="font-size:47.05930328px;fill:#666666;stroke-width:0.98040217"
         d="m 1108.2187,256.99304 v 13.43543 h -4.5648 v -13.43543 l -12.3531,-20.28256 h 4.0001 q 0.6118,0 0.9647,0.30588 0.3529,0.28236 0.6118,0.75295 l 7.7177,13.10602 q 0.4235,0.82353 0.7765,1.55295 0.3529,0.70589 0.6117,1.43531 0.2589,-0.72942 0.5883,-1.43531 0.3294,-0.72942 0.7294,-1.55295 l 7.6942,-13.10602 q 0.2118,-0.4 0.5882,-0.72942 0.3765,-0.32941 0.9648,-0.32941 h 4.0235 z" /><path
         inkscape:connector-curvature="0"
         id="path5012"
         style="font-size:47.05930328px;fill:#666666;stroke-width:0.98040217"
         d="m 1147.3742,238.40461 q 0,0.77648 -0.4706,1.5059 l -19.0826,26.80027 h 19.2708 v 3.71769 h -25.2708 v -1.78826 q 0,-0.37647 0.1176,-0.70589 0.1412,-0.32941 0.3294,-0.6353 l 19.1297,-26.87086 h -18.6826 v -3.71768 h 24.6591 z" /><path
         inkscape:connector-curvature="0"
         id="path5014"
         style="font-size:47.05930328px;fill:#666666;stroke-width:0.98040217"
         d="m 1186.3592,270.42847 h -4.1883 v -20.32962 h -12.2825 v 14.30603 q 0,1.50589 0.7295,2.23531 0.7294,0.72942 1.8823,0.72942 0.6589,0 1.1295,-0.16471 0.4941,-0.18823 0.847,-0.4 0.353,-0.21177 0.5883,-0.37647 0.2588,-0.18824 0.447,-0.18824 0.3294,0 0.5883,0.4 l 1.2235,2.00002 q -1.0824,1.01178 -2.6118,1.60002 -1.5294,0.56471 -3.153,0.56471 -2.8235,0 -4.3529,-1.57649 -1.5059,-1.57648 -1.5059,-4.54122 v -14.58838 h -2.8707 q -0.3764,0 -0.6353,-0.21177 -0.2588,-0.2353 -0.2588,-0.70589 v -1.6706 l 3.9059,-0.51766 0.9648,-7.34125 q 0.071,-0.35294 0.3058,-0.56471 0.2589,-0.2353 0.6589,-0.2353 h 2.1176 v 8.21185 h 16.4708 z m 1.0353,-31.48268 q 0,0.61177 -0.2588,1.15296 -0.2353,0.51765 -0.6589,0.91765 -0.4,0.40001 -0.9411,0.6353 -0.5412,0.2353 -1.153,0.2353 -0.6118,0 -1.1529,-0.2353 -0.5177,-0.23529 -0.9177,-0.6353 -0.4,-0.4 -0.6353,-0.91765 -0.2353,-0.54119 -0.2353,-1.15296 0,-0.61177 0.2353,-1.15295 0.2353,-0.56471 0.6353,-0.96472 0.4,-0.42353 0.9177,-0.65883 0.5411,-0.23529 1.1529,-0.23529 0.6118,0 1.153,0.23529 0.5411,0.2353 0.9411,0.65883 0.4236,0.40001 0.6589,0.96472 0.2588,0.54118 0.2588,1.15295 z" /><path
         inkscape:connector-curvature="0"
         id="path5016"
         style="font-size:47.05930328px;fill:#666666;stroke-width:0.98040217"
         d="m 1197.5232,235.76929 v 34.65918 h -4.1882 v -34.65918 z" /><path
         inkscape:connector-curvature="0"
         id="path5018"
         style="font-size:47.05930328px;fill:#666666;stroke-width:0.98040217"
         d="m 1220.2683,255.91067 q 0,-1.45884 -0.4235,-2.65885 -0.4,-1.22354 -1.2,-2.09414 -0.7765,-0.89412 -1.9059,-1.36472 -1.1294,-0.49412 -2.5647,-0.49412 -3.0118,0 -4.7766,1.76472 -1.7411,1.7412 -2.1647,4.84711 z m 3.3883,11.17659 q -0.7765,0.94118 -1.8588,1.64707 -1.0824,0.68236 -2.3295,1.12943 -1.2235,0.44706 -2.5412,0.65883 -1.3176,0.23529 -2.6118,0.23529 -2.4706,0 -4.5647,-0.82354 -2.0706,-0.84706 -3.6,-2.44708 -1.5059,-1.62355 -2.353,-4.00004 -0.8471,-2.3765 -0.8471,-5.45888 0,-2.49414 0.753,-4.65887 0.7764,-2.16473 2.2118,-3.74122 1.4353,-1.60001 3.5059,-2.49414 2.0706,-0.91765 4.6588,-0.91765 2.1412,0 3.953,0.72941 1.8353,0.70589 3.153,2.07061 1.3412,1.34119 2.0941,3.34121 0.753,1.9765 0.753,4.5177 0,0.98824 -0.2118,1.31766 -0.2117,0.32941 -0.8,0.32941 h -15.9296 q 0.071,2.25885 0.6118,3.92945 0.5647,1.67061 1.553,2.80003 0.9882,1.1059 2.3529,1.67061 1.3648,0.54118 3.0589,0.54118 1.5765,0 2.7059,-0.35294 1.1529,-0.37648 1.9765,-0.80001 0.8235,-0.42354 1.3647,-0.77648 0.5647,-0.37648 0.9647,-0.37648 0.5177,0 0.8,0.40001 z" /><path
         inkscape:connector-curvature="0"
         id="path5020"
         style="font-size:47.05930328px;fill:#666666;stroke-width:0.98040217"
         d="m 1255.0547,250.52238 q -0.2823,0.51765 -0.8706,0.51765 -0.3529,0 -0.8,-0.25882 -0.447,-0.25883 -1.1059,-0.56471 -0.6353,-0.32942 -1.5294,-0.58825 -0.8941,-0.28235 -2.1177,-0.28235 -1.0588,0 -1.9059,0.28235 -0.847,0.25883 -1.4588,0.72942 -0.5882,0.4706 -0.9177,1.1059 -0.3058,0.61177 -0.3058,1.34119 0,0.91765 0.5176,1.52943 0.5412,0.61177 1.4118,1.05883 0.8706,0.44706 1.9765,0.80001 1.1059,0.32941 2.2588,0.72942 1.1765,0.37647 2.2824,0.84706 1.1059,0.4706 1.9765,1.17649 0.8706,0.70589 1.3882,1.74119 0.5412,1.01178 0.5412,2.44708 0,1.64708 -0.5882,3.05886 -0.5883,1.38825 -1.7412,2.42355 -1.153,1.01178 -2.8236,1.60002 -1.6706,0.58824 -3.8588,0.58824 -2.4942,0 -4.5177,-0.80001 -2.0236,-0.82353 -3.4354,-2.09414 l 0.9883,-1.60001 q 0.1882,-0.30589 0.447,-0.4706 0.2589,-0.1647 0.6589,-0.1647 0.4235,0 0.8941,0.32941 0.4706,0.32942 1.1294,0.72942 0.6824,0.40001 1.6471,0.72942 0.9647,0.32942 2.4,0.32942 1.2236,0 2.1412,-0.30589 0.9177,-0.32941 1.5295,-0.8706 0.6117,-0.54118 0.8941,-1.24707 0.3059,-0.70589 0.3059,-1.5059 0,-0.98824 -0.5412,-1.62354 -0.5177,-0.65883 -1.3883,-1.1059 -0.8706,-0.47059 -2,-0.8 -1.1059,-0.35295 -2.2824,-0.72942 -1.1529,-0.37648 -2.2823,-0.84707 -1.1059,-0.49412 -1.9765,-1.22354 -0.8706,-0.72942 -1.4118,-1.78826 -0.5177,-1.08236 -0.5177,-2.61179 0,-1.36472 0.5648,-2.61179 0.5647,-1.2706 1.647,-2.21179 1.0824,-0.96471 2.6589,-1.52942 1.5765,-0.56471 3.6,-0.56471 2.353,0 4.2118,0.75294 1.8824,0.72942 3.2471,2.02355 z" /><path
         inkscape:connector-curvature="0"
         id="path5022"
         style="font-size:47.05930328px;fill:#666666;stroke-width:0.98040217"
         d="m 1277.5299,255.91067 q 0,-1.45884 -0.4235,-2.65885 -0.4,-1.22354 -1.2,-2.09414 -0.7765,-0.89412 -1.9059,-1.36472 -1.1294,-0.49412 -2.5647,-0.49412 -3.0118,0 -4.7766,1.76472 -1.7412,1.7412 -2.1647,4.84711 z m 3.3883,11.17659 q -0.7765,0.94118 -1.8588,1.64707 -1.0824,0.68236 -2.3295,1.12943 -1.2235,0.44706 -2.5412,0.65883 -1.3176,0.23529 -2.6118,0.23529 -2.4706,0 -4.5647,-0.82354 -2.0706,-0.84706 -3.6001,-2.44708 -1.5058,-1.62355 -2.3529,-4.00004 -0.8471,-2.3765 -0.8471,-5.45888 0,-2.49414 0.753,-4.65887 0.7764,-2.16473 2.2118,-3.74122 1.4353,-1.60001 3.5059,-2.49414 2.0706,-0.91765 4.6588,-0.91765 2.1412,0 3.953,0.72941 1.8353,0.70589 3.153,2.07061 1.3412,1.34119 2.0941,3.34121 0.753,1.9765 0.753,4.5177 0,0.98824 -0.2118,1.31766 -0.2117,0.32941 -0.8,0.32941 h -15.9296 q 0.071,2.25885 0.6118,3.92945 0.5647,1.67061 1.553,2.80003 0.9882,1.1059 2.3529,1.67061 1.3647,0.54118 3.0589,0.54118 1.5765,0 2.7059,-0.35294 1.1529,-0.37648 1.9765,-0.80001 0.8235,-0.42354 1.3647,-0.77648 0.5647,-0.37648 0.9647,-0.37648 0.5177,0 0.8,0.40001 z" /><path
         inkscape:connector-curvature="0"
         id="path5024"
         style="font-size:47.05930328px;fill:#666666;stroke-width:0.98040217"
         d="m 1290.3698,251.36945 q 1.1294,-2.44708 2.7765,-3.8118 1.6471,-1.38825 4.0236,-1.38825 0.7529,0 1.4353,0.1647 0.7059,0.16471 1.2471,0.51766 l -0.3059,3.12944 q -0.1412,0.58824 -0.7059,0.58824 -0.3294,0 -0.9647,-0.14118 -0.6353,-0.14118 -1.4353,-0.14118 -1.1295,0 -2.0236,0.32942 -0.8706,0.32942 -1.5765,0.98825 -0.6823,0.6353 -1.247,1.60001 -0.5412,0.94119 -0.9883,2.16473 v 15.05898 h -4.2118 v -23.83554 h 2.4 q 0.6824,0 0.9412,0.25883 0.2588,0.25882 0.353,0.89412 z" /><path
         inkscape:connector-curvature="0"
         id="path5026"
         style="font-size:47.05930328px;fill:#666666;stroke-width:0.98040217"
         d="m 1323.9128,246.59293 -9.7177,23.83554 h -3.7648 l -9.7177,-23.83554 h 3.4118 q 0.5176,0 0.847,0.25883 0.3295,0.25882 0.4471,0.61177 l 6.0471,15.34133 q 0.2824,0.8706 0.4941,1.69413 0.2118,0.82354 0.4,1.64708 0.1883,-0.82354 0.4001,-1.64708 0.2117,-0.82353 0.5176,-1.69413 l 6.1177,-15.34133 q 0.1412,-0.37648 0.4706,-0.61177 0.3294,-0.25883 0.7765,-0.25883 z" /><path
         inkscape:connector-curvature="0"
         id="path5028"
         style="font-size:47.05930328px;fill:#666666;stroke-width:0.98040217"
         d="m 1343.0637,255.91067 q 0,-1.45884 -0.4235,-2.65885 -0.4,-1.22354 -1.2001,-2.09414 -0.7764,-0.89412 -1.9059,-1.36472 -1.1294,-0.49412 -2.5647,-0.49412 -3.0118,0 -4.7765,1.76472 -1.7412,1.7412 -2.1647,4.84711 z m 3.3883,11.17659 q -0.7765,0.94118 -1.8589,1.64707 -1.0823,0.68236 -2.3294,1.12943 -1.2236,0.44706 -2.5412,0.65883 -1.3177,0.23529 -2.6118,0.23529 -2.4706,0 -4.5648,-0.82354 -2.0706,-0.84706 -3.6,-2.44708 -1.5059,-1.62355 -2.353,-4.00004 -0.847,-2.3765 -0.847,-5.45888 0,-2.49414 0.7529,-4.65887 0.7765,-2.16473 2.2118,-3.74122 1.4353,-1.60001 3.5059,-2.49414 2.0706,-0.91765 4.6589,-0.91765 2.1412,0 3.953,0.72941 1.8353,0.70589 3.1529,2.07061 1.3412,1.34119 2.0942,3.34121 0.7529,1.9765 0.7529,4.5177 0,0.98824 -0.2117,1.31766 -0.2118,0.32941 -0.8,0.32941 h -15.9296 q 0.071,2.25885 0.6118,3.92945 0.5647,1.67061 1.5529,2.80003 0.9883,1.1059 2.353,1.67061 1.3647,0.54118 3.0588,0.54118 1.5765,0 2.7059,-0.35294 1.153,-0.37648 1.9765,-0.80001 0.8236,-0.42354 1.3648,-0.77648 0.5647,-0.37648 0.9647,-0.37648 0.5176,0 0.8,0.40001 z" /><path
         inkscape:connector-curvature="0"
         id="path5030"
         style="font-size:47.05930328px;fill:#666666;stroke-width:0.98040217"
         d="m 1355.9036,251.36945 q 1.1294,-2.44708 2.7765,-3.8118 1.647,-1.38825 4.0235,-1.38825 0.753,0 1.4353,0.1647 0.7059,0.16471 1.2471,0.51766 l -0.3059,3.12944 q -0.1411,0.58824 -0.7059,0.58824 -0.3294,0 -0.9647,-0.14118 -0.6353,-0.14118 -1.4353,-0.14118 -1.1294,0 -2.0235,0.32942 -0.8706,0.32942 -1.5765,0.98825 -0.6824,0.6353 -1.2471,1.60001 -0.5412,0.94119 -0.9882,2.16473 v 15.05898 h -4.2118 v -23.83554 h 2.4 q 0.6823,0 0.9412,0.25883 0.2588,0.25882 0.3529,0.89412 z" /></g></g></svg>