<?xml version="1.0" encoding="UTF-8" standalone="no"?>
<!-- Generator: Adobe Illustrator 22.1.0, SVG Export Plug-In . SVG Version: 6.00 Build 0)  -->

<svg
   xmlns:dc="http://purl.org/dc/elements/1.1/"
   xmlns:cc="http://creativecommons.org/ns#"
   xmlns:rdf="http://www.w3.org/1999/02/22-rdf-syntax-ns#"
   xmlns:svg="http://www.w3.org/2000/svg"
   xmlns="http://www.w3.org/2000/svg"
   xmlns:sodipodi="http://sodipodi.sourceforge.net/DTD/sodipodi-0.dtd"
   xmlns:inkscape="http://www.inkscape.org/namespaces/inkscape"
   version="1.1"
   id="Layer_1"
   x="0px"
   y="0px"
   viewBox="0 0 600.00001 514.60001"
   xml:space="preserve"
   sodipodi:docname="logo.svg"
   width="200"
   height="171.53334"
   inkscape:version="0.92.2 (5c3e80d, 2017-08-06)"
   inkscape:export-filename="C:\Users\dimh\work\terracotta\docs\_figures\logo-banner-700px.png"
   inkscape:export-xdpi="32.759998"
   inkscape:export-ydpi="32.759998"><metadata
     id="metadata291"><rdf:RDF><cc:Work
         rdf:about=""><dc:format>image/svg+xml</dc:format><dc:type
           rdf:resource="http://purl.org/dc/dcmitype/StillImage" /><dc:title></dc:title></cc:Work></rdf:RDF></metadata><defs
     id="defs289" /><sodipodi:namedview
     pagecolor="#ffffff"
     bordercolor="#666666"
     borderopacity="1"
     objecttolerance="10"
     gridtolerance="10"
     guidetolerance="10"
     inkscape:pageopacity="0"
     inkscape:pageshadow="2"
     inkscape:window-width="3072"
     inkscape:window-height="1665"
     id="namedview287"
     showgrid="false"
     fit-margin-top="8"
     fit-margin-right="4"
     fit-margin-bottom="12"
     fit-margin-left="21.1"
     inkscape:pagecheckerboard="false"
     inkscape:zoom="1.7433396"
     inkscape:cx="428.89722"
     inkscape:cy="67.826086"
     inkscape:window-x="-8"
     inkscape:window-y="-8"
     inkscape:window-maximized="1"
     inkscape:current-layer="Layer_1"
     scale-x="3" /><style
     type="text/css"
     id="style2">
	.st0{fill:#808285;}
	.st1{fill:#EECEB6;}
	.st2{fill:#FDEBD9;}
	.st3{fill:#F5E4D6;}
	.st4{fill:#FBDABB;}
	.st5{fill:#63CCEE;}
	.st6{fill:#E8BA98;}
	.st7{fill:#F4AA69;}
	.st8{fill:#DB9364;}
	.st9{fill:#F6B982;}
	.st10{fill:#00A4DA;}
	.st11{fill:#008ED0;}
	.st12{fill:#00B1BB;}
	.st13{fill:#4FC4CA;}
	.st14{fill:#2AB8EA;}
	.st15{fill:#47B7B6;}
</style><g
     id="g282"
     transform="translate(-251.8,-34.4)"><g
       id="g90"><polygon
         style="fill:#eeceb6"
         id="polygon26"
         points="315.1,201.7 315.1,157.3 344.6,143.7 344.6,188.1 "
         class="st1" /><polygon
         style="fill:#fdebd9"
         id="polygon28"
         points="315.1,246.2 315.1,201.7 344.6,188.1 344.6,232.6 "
         class="st2" /><polygon
         style="fill:#f5e4d6"
         id="polygon30"
         points="344.6,188.1 344.6,143.7 374.1,130.1 374.1,174.6 "
         class="st3" /><polygon
         style="fill:#fbdabb"
         id="polygon32"
         points="344.6,232.6 344.6,188.1 374.1,174.6 374.1,219 "
         class="st4" /><polygon
         style="fill:#eeceb6"
         id="polygon34"
         points="374.1,174.6 374.1,130.1 403.5,116.5 403.5,161 "
         class="st1" /><polygon
         style="fill:#fdebd9"
         id="polygon36"
         points="374.1,219 374.1,174.6 403.5,161 403.5,205.4 "
         class="st2" /><polygon
         style="fill:#f5e4d6"
         id="polygon38"
         points="403.5,161 403.5,116.5 433,102.9 433,147.4 "
         class="st3" /><polygon
         style="fill:#fbdabb"
         id="polygon40"
         points="403.5,205.4 403.5,161 433,147.4 433,191.8 "
         class="st4" /><polygon
         style="fill:#eeceb6"
         id="polygon42"
         points="315.1,290.7 315.1,246.2 344.6,232.6 344.6,277.1 "
         class="st1" /><polygon
         style="fill:#fdebd9"
         id="polygon44"
         points="315.1,335.1 315.1,290.7 344.6,277.1 344.6,321.5 "
         class="st2" /><polygon
         style="fill:#f5e4d6"
         id="polygon46"
         points="344.6,277.1 344.6,232.6 374.1,219 374.1,263.5 "
         class="st3" /><polygon
         style="fill:#fbdabb"
         id="polygon48"
         points="344.6,321.5 344.6,277.1 374.1,263.5 374.1,307.9 "
         class="st4" /><polygon
         style="fill:#eeceb6"
         id="polygon50"
         points="374.1,263.5 374.1,219 403.5,205.4 403.5,249.9 "
         class="st1" /><polygon
         style="fill:#fdebd9"
         id="polygon52"
         points="374.1,307.9 374.1,263.5 403.5,249.9 403.5,294.3 "
         class="st2" /><polygon
         style="fill:#63ccee"
         id="polygon54"
         points="403.5,249.9 403.5,205.4 433,191.8 433,236.3 "
         class="st5" /><polygon
         style="fill:#fbdabb"
         id="polygon56"
         points="403.5,294.3 403.5,249.9 433,236.3 433,280.7 "
         class="st4" /><polygon
         style="fill:#eeceb6"
         id="polygon58"
         points="315.1,379.6 315.1,335.1 344.6,321.5 344.6,366 "
         class="st1" /><polygon
         style="fill:#fdebd9"
         id="polygon60"
         points="315.1,424 315.1,379.6 344.6,366 344.6,410.5 "
         class="st2" /><polygon
         style="fill:#f5e4d6"
         id="polygon62"
         points="344.6,366 344.6,321.5 374.1,307.9 374.1,352.4 "
         class="st3" /><polygon
         style="fill:#fbdabb"
         id="polygon64"
         points="344.6,410.5 344.6,366 374.1,352.4 374.1,396.9 "
         class="st4" /><polygon
         style="fill:#eeceb6"
         id="polygon66"
         points="374.1,352.4 374.1,307.9 403.5,294.3 403.5,338.8 "
         class="st1" /><polygon
         style="fill:#fdebd9"
         id="polygon68"
         points="374.1,396.9 374.1,352.4 403.5,338.8 403.5,383.3 "
         class="st2" /><polygon
         style="fill:#f5e4d6"
         id="polygon70"
         points="403.5,338.8 403.5,294.3 433,280.7 433,325.2 "
         class="st3" /><polygon
         style="fill:#fbdabb"
         id="polygon72"
         points="403.5,383.3 403.5,338.8 433,325.2 433,369.7 "
         class="st4" /><polygon
         style="fill:#eeceb6"
         id="polygon74"
         points="315.1,468.5 315.1,424 344.6,410.5 344.6,454.9 "
         class="st1" /><polygon
         style="fill:#fdebd9"
         id="polygon76"
         points="315.1,513 315.1,468.5 344.6,454.9 344.6,499.4 "
         class="st2" /><polygon
         style="fill:#f5e4d6"
         id="polygon78"
         points="344.6,454.9 344.6,410.5 374.1,396.9 374.1,441.3 "
         class="st3" /><polygon
         style="fill:#fbdabb"
         id="polygon80"
         points="344.6,499.4 344.6,454.9 374.1,441.3 374.1,485.8 "
         class="st4" /><polygon
         style="fill:#eeceb6"
         id="polygon82"
         points="374.1,441.3 374.1,396.9 403.5,383.3 403.5,427.7 "
         class="st1" /><polygon
         style="fill:#fdebd9"
         id="polygon84"
         points="374.1,485.8 374.1,441.3 403.5,427.7 403.5,472.2 "
         class="st2" /><polygon
         style="fill:#f5e4d6"
         id="polygon86"
         points="403.5,427.7 403.5,383.3 433,369.7 433,414.1 "
         class="st3" /><polygon
         style="fill:#fbdabb"
         id="polygon88"
         points="403.5,472.2 403.5,427.7 433,414.1 433,458.6 "
         class="st4" /></g><g
       id="g156"><polygon
         style="fill:#e8ba98"
         id="polygon92"
         points="433,147.4 433,102.9 462.5,116.5 462.5,161 "
         class="st6" /><polygon
         style="fill:#f4aa69"
         id="polygon94"
         points="433,191.8 433,147.4 462.5,161 462.5,205.4 "
         class="st7" /><polygon
         style="fill:#db9364"
         id="polygon96"
         points="462.5,161 462.5,116.5 492,130.1 492,174.6 "
         class="st8" /><polygon
         style="fill:#f6b982"
         id="polygon98"
         points="462.5,205.4 462.5,161 492,174.6 492,219 "
         class="st9" /><polygon
         style="fill:#e8ba98"
         id="polygon100"
         points="492,174.6 492,130.1 521.5,143.7 521.5,188.1 "
         class="st6" /><polygon
         style="fill:#f4aa69"
         id="polygon102"
         points="492,219 492,174.6 521.5,188.1 521.5,232.6 "
         class="st7" /><polygon
         style="fill:#db9364"
         id="polygon104"
         points="521.5,188.1 521.5,143.7 551,157.3 551,201.7 "
         class="st8" /><polygon
         style="fill:#f6b982"
         id="polygon106"
         points="521.5,232.6 521.5,188.1 551,201.7 551,246.2 "
         class="st9" /><polygon
         style="fill:#00a4da"
         id="polygon108"
         points="433,236.3 433,191.8 462.5,205.4 462.5,249.9 "
         class="st10" /><polygon
         style="fill:#f4aa69"
         id="polygon110"
         points="433,280.7 433,236.3 462.5,249.9 462.5,294.3 "
         class="st7" /><polygon
         style="fill:#008ed0"
         id="polygon112"
         points="462.5,249.9 462.5,205.4 492,219 492,263.5 "
         class="st11" /><polygon
         style="fill:#00b1bb"
         id="polygon114"
         points="462.5,294.3 462.5,249.9 492,263.5 492,307.9 "
         class="st12" /><polygon
         style="fill:#00a4da"
         id="polygon116"
         points="492,263.5 492,219 521.5,232.6 521.5,277.1 "
         class="st10" /><polygon
         style="fill:#f4aa69"
         id="polygon118"
         points="492,307.9 492,263.5 521.5,277.1 521.5,321.5 "
         class="st7" /><polygon
         style="fill:#008ed0"
         id="polygon120"
         points="521.5,277.1 521.5,232.6 551,246.2 551,290.7 "
         class="st11" /><polygon
         style="fill:#f6b982"
         id="polygon122"
         points="521.5,321.5 521.5,277.1 551,290.7 551,335.1 "
         class="st9" /><polygon
         style="fill:#e8ba98"
         id="polygon124"
         points="433,325.2 433,280.7 462.5,294.3 462.5,338.8 "
         class="st6" /><polygon
         style="fill:#f4aa69"
         id="polygon126"
         points="433,369.7 433,325.2 462.5,338.8 462.5,383.3 "
         class="st7" /><polygon
         style="fill:#008ed0"
         id="polygon128"
         points="462.5,338.8 462.5,294.3 492,307.9 492,352.4 "
         class="st11" /><polygon
         style="fill:#00b1bb"
         id="polygon130"
         points="462.5,383.3 462.5,338.8 492,352.4 492,396.9 "
         class="st12" /><polygon
         style="fill:#e8ba98"
         id="polygon132"
         points="492,352.4 492,307.9 521.5,321.5 521.5,366 "
         class="st6" /><polygon
         style="fill:#f4aa69"
         id="polygon134"
         points="492,396.9 492,352.4 521.5,366 521.5,410.5 "
         class="st7" /><polygon
         style="fill:#db9364"
         id="polygon136"
         points="521.5,366 521.5,321.5 551,335.1 551,379.6 "
         class="st8" /><polygon
         style="fill:#f6b982"
         id="polygon138"
         points="521.5,410.5 521.5,366 551,379.6 551,424 "
         class="st9" /><polygon
         style="fill:#e8ba98"
         id="polygon140"
         points="433,414.1 433,369.7 462.5,383.3 462.5,427.7 "
         class="st6" /><polygon
         style="fill:#f4aa69"
         id="polygon142"
         points="433,458.6 433,414.1 462.5,427.7 462.5,472.2 "
         class="st7" /><polygon
         style="fill:#db9364"
         id="polygon144"
         points="462.5,427.7 462.5,383.3 492,396.9 492,441.3 "
         class="st8" /><polygon
         style="fill:#f6b982"
         id="polygon146"
         points="462.5,472.2 462.5,427.7 492,441.3 492,485.8 "
         class="st9" /><polygon
         style="fill:#e8ba98"
         id="polygon148"
         points="492,441.3 492,396.9 521.5,410.5 521.5,454.9 "
         class="st6" /><polygon
         style="fill:#f4aa69"
         id="polygon150"
         points="492,485.8 492,441.3 521.5,454.9 521.5,499.4 "
         class="st7" /><polygon
         style="fill:#db9364"
         id="polygon152"
         points="521.5,454.9 521.5,410.5 551,424 551,468.5 "
         class="st8" /><polygon
         style="fill:#f6b982"
         id="polygon154"
         points="521.5,499.4 521.5,454.9 551,468.5 551,513 "
         class="st9" /></g><g
       id="g222"><polygon
         style="fill:#eeceb6"
         id="polygon158"
         points="551,201.7 551,157.3 580.4,143.7 580.4,188.1 "
         class="st1" /><polygon
         style="fill:#fdebd9"
         id="polygon160"
         points="551,246.2 551,201.7 580.4,188.1 580.4,232.6 "
         class="st2" /><polygon
         style="fill:#f5e4d6"
         id="polygon162"
         points="580.4,188.1 580.4,143.7 609.9,130.1 609.9,174.6 "
         class="st3" /><polygon
         style="fill:#fbdabb"
         id="polygon164"
         points="580.4,232.6 580.4,188.1 609.9,174.6 609.9,219 "
         class="st4" /><polygon
         style="fill:#eeceb6"
         id="polygon166"
         points="609.9,174.6 609.9,130.1 639.4,116.5 639.4,161 "
         class="st1" /><polygon
         style="fill:#fdebd9"
         id="polygon168"
         points="609.9,219 609.9,174.6 639.4,161 639.4,205.4 "
         class="st2" /><polygon
         style="fill:#f5e4d6"
         id="polygon170"
         points="639.4,161 639.4,116.5 668.9,102.9 668.9,147.4 "
         class="st3" /><polygon
         style="fill:#fbdabb"
         id="polygon172"
         points="639.4,205.4 639.4,161 668.9,147.4 668.9,191.8 "
         class="st4" /><polygon
         style="fill:#eeceb6"
         id="polygon174"
         points="551,290.7 551,246.2 580.4,232.6 580.4,277.1 "
         class="st1" /><polygon
         style="fill:#fdebd9"
         id="polygon176"
         points="551,335.1 551,290.7 580.4,277.1 580.4,321.5 "
         class="st2" /><polygon
         style="fill:#63ccee"
         id="polygon178"
         points="580.4,277.1 580.4,232.6 609.9,219 609.9,263.5 "
         class="st5" /><polygon
         style="fill:#4fc4ca"
         id="polygon180"
         points="580.4,321.5 580.4,277.1 609.9,263.5 609.9,307.9 "
         class="st13" /><polygon
         style="fill:#2ab8ea"
         id="polygon182"
         points="609.9,263.5 609.9,219 639.4,205.4 639.4,249.9 "
         class="st14" /><polygon
         style="fill:#fdebd9"
         id="polygon184"
         points="609.9,307.9 609.9,263.5 639.4,249.9 639.4,294.3 "
         class="st2" /><polygon
         style="fill:#63ccee"
         id="polygon186"
         points="639.4,249.9 639.4,205.4 668.9,191.8 668.9,236.3 "
         class="st5" /><polygon
         style="fill:#fbdabb"
         id="polygon188"
         points="639.4,294.3 639.4,249.9 668.9,236.3 668.9,280.7 "
         class="st4" /><polygon
         style="fill:#eeceb6"
         id="polygon190"
         points="551,379.6 551,335.1 580.4,321.5 580.4,366 "
         class="st1" /><polygon
         style="fill:#fdebd9"
         id="polygon192"
         points="551,424 551,379.6 580.4,366 580.4,410.5 "
         class="st2" /><polygon
         style="fill:#2ab8ea"
         id="polygon194"
         points="580.4,366 580.4,321.5 609.9,307.9 609.9,352.4 "
         class="st14" /><polygon
         style="fill:#4fc4ca"
         id="polygon196"
         points="580.4,410.5 580.4,366 609.9,352.4 609.9,396.9 "
         class="st13" /><polygon
         style="fill:#eeceb6"
         id="polygon198"
         points="609.9,352.4 609.9,307.9 639.4,294.3 639.4,338.8 "
         class="st1" /><polygon
         style="fill:#47b7b6"
         id="polygon200"
         points="609.9,396.9 609.9,352.4 639.4,338.8 639.4,383.3 "
         class="st15" /><polygon
         style="fill:#f5e4d6"
         id="polygon202"
         points="639.4,338.8 639.4,294.3 668.9,280.7 668.9,325.2 "
         class="st3" /><polygon
         style="fill:#4fc4ca"
         id="polygon204"
         points="639.4,383.3 639.4,338.8 668.9,325.2 668.9,369.7 "
         class="st13" /><polygon
         style="fill:#eeceb6"
         id="polygon206"
         points="551,468.5 551,424 580.4,410.5 580.4,454.9 "
         class="st1" /><polygon
         style="fill:#fdebd9"
         id="polygon208"
         points="551,513 551,468.5 580.4,454.9 580.4,499.4 "
         class="st2" /><polygon
         style="fill:#f5e4d6"
         id="polygon210"
         points="580.4,454.9 580.4,410.5 609.9,396.9 609.9,441.3 "
         class="st3" /><polygon
         style="fill:#fbdabb"
         id="polygon212"
         points="580.4,499.4 580.4,454.9 609.9,441.3 609.9,485.8 "
         class="st4" /><polygon
         style="fill:#eeceb6"
         id="polygon214"
         points="609.9,441.3 609.9,396.9 639.4,383.3 639.4,427.7 "
         class="st1" /><polygon
         style="fill:#fdebd9"
         id="polygon216"
         points="609.9,485.8 609.9,441.3 639.4,427.7 639.4,472.2 "
         class="st2" /><polygon
         style="fill:#f5e4d6"
         id="polygon218"
         points="639.4,427.7 639.4,383.3 668.9,369.7 668.9,414.1 "
         class="st3" /><polygon
         style="fill:#fbdabb"
         id="polygon220"
         points="639.4,472.2 639.4,427.7 668.9,414.1 668.9,458.6 "
         class="st4" /></g><g
       id="g280"><polygon
         style="fill:#e8ba98"
         id="polygon224"
         points="679.3,118.3 679.3,73.9 708.8,87.5 708.8,131.9 "
         class="st6" /><polygon
         style="fill:#f4aa69"
         id="polygon226"
         points="668.9,191.8 668.9,147.4 698.4,161 698.4,205.4 "
         class="st7" /><polygon
         style="fill:#00b1bb"
         id="polygon228"
         points="713.1,188.1 713.1,143.7 742.6,157.3 742.6,201.7 "
         class="st12" /><polygon
         style="fill:#e8ba98"
         id="polygon230"
         points="746.4,102.9 746.4,58.4 775.9,72 775.9,116.5 "
         class="st6" /><polygon
         style="fill:#f4aa69"
         id="polygon232"
         points="767.9,248 767.9,203.6 797.4,217.2 797.4,261.6 "
         class="st7" /><polygon
         style="fill:#db9364"
         id="polygon234"
         points="805.5,147.4 805.5,102.9 835,116.5 835,161 "
         class="st8" /><polygon
         style="fill:#008ed0"
         id="polygon236"
         points="668.9,236.3 668.9,191.8 698.4,205.4 698.4,249.9 "
         class="st11" /><polygon
         style="fill:#f4aa69"
         id="polygon238"
         points="668.9,280.7 668.9,236.3 698.4,249.9 698.4,294.3 "
         class="st7" /><polygon
         style="fill:#db9364"
         id="polygon240"
         points="698.4,249.9 698.4,205.4 727.9,219 727.9,263.5 "
         class="st8" /><polygon
         style="fill:#f6b982"
         id="polygon242"
         points="698.4,294.3 698.4,249.9 727.9,263.5 727.9,307.9 "
         class="st9" /><polygon
         style="fill:#f4aa69"
         id="polygon244"
         points="727.9,307.9 727.9,263.5 757.4,277.1 757.4,321.5 "
         class="st7" /><polygon
         style="fill:#db9364"
         id="polygon246"
         points="810.3,316.2 810.3,271.7 839.8,285.3 839.8,329.8 "
         class="st8" /><polygon
         style="fill:#e8ba98"
         id="polygon248"
         points="668.9,325.2 668.9,280.7 698.4,294.3 698.4,338.8 "
         class="st6" /><polygon
         style="fill:#00b1bb"
         id="polygon250"
         points="668.9,369.7 668.9,325.2 698.4,338.8 698.4,383.3 "
         class="st12" /><polygon
         style="fill:#db9364"
         id="polygon252"
         points="698.4,338.8 698.4,294.3 727.9,307.9 727.9,352.4 "
         class="st8" /><polygon
         style="fill:#f6b982"
         id="polygon254"
         points="698.4,383.3 698.4,338.8 727.9,352.4 727.9,396.9 "
         class="st9" /><polygon
         style="fill:#e8ba98"
         id="polygon256"
         points="727.9,352.4 727.9,307.9 757.4,321.5 757.4,366 "
         class="st6" /><polygon
         style="fill:#f4aa69"
         id="polygon258"
         points="727.9,396.9 727.9,352.4 757.4,366 757.4,410.5 "
         class="st7" /><polygon
         style="fill:#db9364"
         id="polygon260"
         points="757.4,366 757.4,321.5 786.8,335.1 786.8,379.6 "
         class="st8" /><polygon
         style="fill:#f6b982"
         id="polygon262"
         points="757.4,410.5 757.4,366 786.8,379.6 786.8,424 "
         class="st9" /><polygon
         style="fill:#e8ba98"
         id="polygon264"
         points="668.9,414.1 668.9,369.7 698.4,383.3 698.4,427.7 "
         class="st6" /><polygon
         style="fill:#f4aa69"
         id="polygon266"
         points="668.9,458.6 668.9,414.1 698.4,427.7 698.4,472.2 "
         class="st7" /><polygon
         style="fill:#db9364"
         id="polygon268"
         points="698.4,427.7 698.4,383.3 727.9,396.9 727.9,441.3 "
         class="st8" /><polygon
         style="fill:#f6b982"
         id="polygon270"
         points="698.4,472.2 698.4,427.7 727.9,441.3 727.9,485.8 "
         class="st9" /><polygon
         style="fill:#e8ba98"
         id="polygon272"
         points="727.9,441.3 727.9,396.9 757.4,410.5 757.4,454.9 "
         class="st6" /><polygon
         style="fill:#f4aa69"
         id="polygon274"
         points="727.9,485.8 727.9,441.3 757.4,454.9 757.4,499.4 "
         class="st7" /><polygon
         style="fill:#db9364"
         id="polygon276"
         points="757.4,454.9 757.4,410.5 786.8,424 786.8,468.5 "
         class="st8" /><polygon
         style="fill:#f6b982"
         id="polygon278"
         points="757.4,499.4 757.4,454.9 786.8,468.5 786.8,513 "
         class="st9" /></g></g></svg>